<mxfile host="app.diagrams.net" modified="2023-09-07T07:11:58.754Z" agent="Mozilla/5.0 (Windows NT 10.0; Win64; x64) AppleWebKit/537.36 (KHTML, like Gecko) Chrome/116.0.0.0 Safari/537.36" etag="enMqPHgG65OosYAcsR34" version="21.7.2" type="google">
  <diagram name="Page-1" id="2YBvvXClWsGukQMizWep">
    <mxGraphModel grid="1" page="1" gridSize="10" guides="1" tooltips="1" connect="1" arrows="1" fold="1" pageScale="1" pageWidth="850" pageHeight="1100" math="0" shadow="0">
      <root>
        <mxCell id="0" />
        <mxCell id="1" parent="0" />
        <mxCell id="aM9ryv3xv72pqoxQDRHE-1" value="&lt;i&gt;this&lt;/i&gt; :Empleado" style="shape=umlLifeline;perimeter=lifelinePerimeter;whiteSpace=wrap;html=1;container=0;dropTarget=0;collapsible=0;recursiveResize=0;outlineConnect=0;portConstraint=eastwest;newEdgeStyle={&quot;edgeStyle&quot;:&quot;elbowEdgeStyle&quot;,&quot;elbow&quot;:&quot;vertical&quot;,&quot;curved&quot;:0,&quot;rounded&quot;:0};" vertex="1" parent="1">
          <mxGeometry x="225" y="-2780" width="100" height="510" as="geometry" />
        </mxCell>
        <mxCell id="aM9ryv3xv72pqoxQDRHE-2" value="" style="html=1;points=[];perimeter=orthogonalPerimeter;outlineConnect=0;targetShapes=umlLifeline;portConstraint=eastwest;newEdgeStyle={&quot;edgeStyle&quot;:&quot;elbowEdgeStyle&quot;,&quot;elbow&quot;:&quot;vertical&quot;,&quot;curved&quot;:0,&quot;rounded&quot;:0};" vertex="1" parent="aM9ryv3xv72pqoxQDRHE-1">
          <mxGeometry x="45" y="70" width="10" height="410" as="geometry" />
        </mxCell>
        <mxCell id="aM9ryv3xv72pqoxQDRHE-3" value="1- +aplicarBonosYDescuentos()" style="html=1;verticalAlign=bottom;startArrow=oval;endArrow=block;startSize=8;edgeStyle=elbowEdgeStyle;elbow=vertical;curved=0;rounded=0;" edge="1" parent="aM9ryv3xv72pqoxQDRHE-1" target="aM9ryv3xv72pqoxQDRHE-2">
          <mxGeometry relative="1" as="geometry">
            <mxPoint x="-145" y="70" as="sourcePoint" />
          </mxGeometry>
        </mxCell>
        <mxCell id="aM9ryv3xv72pqoxQDRHE-5" value="&lt;i&gt;B&lt;/i&gt; :CategoriaB" style="shape=umlLifeline;perimeter=lifelinePerimeter;whiteSpace=wrap;html=1;container=0;dropTarget=0;collapsible=0;recursiveResize=0;outlineConnect=0;portConstraint=eastwest;newEdgeStyle={&quot;edgeStyle&quot;:&quot;elbowEdgeStyle&quot;,&quot;elbow&quot;:&quot;vertical&quot;,&quot;curved&quot;:0,&quot;rounded&quot;:0};" vertex="1" parent="1">
          <mxGeometry x="405" y="-2780" width="100" height="510" as="geometry" />
        </mxCell>
        <mxCell id="aM9ryv3xv72pqoxQDRHE-6" value="" style="html=1;points=[];perimeter=orthogonalPerimeter;outlineConnect=0;targetShapes=umlLifeline;portConstraint=eastwest;newEdgeStyle={&quot;edgeStyle&quot;:&quot;elbowEdgeStyle&quot;,&quot;elbow&quot;:&quot;vertical&quot;,&quot;curved&quot;:0,&quot;rounded&quot;:0};" vertex="1" parent="aM9ryv3xv72pqoxQDRHE-5">
          <mxGeometry x="45" y="80" width="10" height="380" as="geometry" />
        </mxCell>
        <mxCell id="IJ2NC7NCbfXvm49nyCNM-15" value="" style="html=1;points=[[0,0,0,0,5],[0,1,0,0,-5],[1,0,0,0,5],[1,1,0,0,-5]];perimeter=orthogonalPerimeter;outlineConnect=0;targetShapes=umlLifeline;portConstraint=eastwest;newEdgeStyle={&quot;curved&quot;:0,&quot;rounded&quot;:0};" vertex="1" parent="aM9ryv3xv72pqoxQDRHE-5">
          <mxGeometry x="50" y="310" width="10" height="40" as="geometry" />
        </mxCell>
        <mxCell id="IJ2NC7NCbfXvm49nyCNM-16" value="7- -nombreEmpiezaConVocal(String)" style="html=1;align=left;spacingLeft=2;endArrow=block;rounded=0;edgeStyle=orthogonalEdgeStyle;curved=0;rounded=0;" edge="1" parent="aM9ryv3xv72pqoxQDRHE-5" source="aM9ryv3xv72pqoxQDRHE-6" target="IJ2NC7NCbfXvm49nyCNM-15">
          <mxGeometry relative="1" as="geometry">
            <mxPoint x="52.49000000000001" y="280" as="sourcePoint" />
            <Array as="points">
              <mxPoint x="83" y="290" />
              <mxPoint x="83" y="320" />
            </Array>
          </mxGeometry>
        </mxCell>
        <mxCell id="IJ2NC7NCbfXvm49nyCNM-17" value="" style="html=1;points=[[0,0,0,0,5],[0,1,0,0,-5],[1,0,0,0,5],[1,1,0,0,-5]];perimeter=orthogonalPerimeter;outlineConnect=0;targetShapes=umlLifeline;portConstraint=eastwest;newEdgeStyle={&quot;curved&quot;:0,&quot;rounded&quot;:0};" vertex="1" parent="aM9ryv3xv72pqoxQDRHE-5">
          <mxGeometry x="50" y="390" width="10" height="40" as="geometry" />
        </mxCell>
        <mxCell id="IJ2NC7NCbfXvm49nyCNM-18" value="8- -calculoDeDescuento(sueldoBase, cantHijos)" style="html=1;align=left;spacingLeft=2;endArrow=block;rounded=0;edgeStyle=orthogonalEdgeStyle;curved=0;rounded=0;" edge="1" parent="aM9ryv3xv72pqoxQDRHE-5" source="aM9ryv3xv72pqoxQDRHE-6" target="IJ2NC7NCbfXvm49nyCNM-17">
          <mxGeometry relative="1" as="geometry">
            <mxPoint x="55" y="390" as="sourcePoint" />
            <Array as="points">
              <mxPoint x="83" y="370" />
              <mxPoint x="83" y="410" />
            </Array>
            <mxPoint x="60" y="420" as="targetPoint" />
          </mxGeometry>
        </mxCell>
        <mxCell id="aM9ryv3xv72pqoxQDRHE-7" value="2- +calcularSueldoNeto(&lt;i&gt;this&lt;/i&gt;)" style="html=1;verticalAlign=bottom;endArrow=block;edgeStyle=elbowEdgeStyle;elbow=vertical;curved=0;rounded=0;" edge="1" parent="1" source="aM9ryv3xv72pqoxQDRHE-2" target="aM9ryv3xv72pqoxQDRHE-6">
          <mxGeometry relative="1" as="geometry">
            <mxPoint x="380" y="-2690" as="sourcePoint" />
            <Array as="points">
              <mxPoint x="365" y="-2700" />
            </Array>
          </mxGeometry>
        </mxCell>
        <mxCell id="aM9ryv3xv72pqoxQDRHE-8" value="sueldoNeto" style="html=1;verticalAlign=bottom;endArrow=open;dashed=1;endSize=8;edgeStyle=elbowEdgeStyle;elbow=vertical;curved=0;rounded=0;" edge="1" parent="1">
          <mxGeometry relative="1" as="geometry">
            <mxPoint x="280" y="-2320" as="targetPoint" />
            <Array as="points">
              <mxPoint x="375" y="-2320" />
            </Array>
            <mxPoint x="450" y="-2320" as="sourcePoint" />
          </mxGeometry>
        </mxCell>
        <mxCell id="aM9ryv3xv72pqoxQDRHE-10" value="4- sueldoBase" style="html=1;verticalAlign=bottom;endArrow=open;dashed=1;endSize=8;edgeStyle=elbowEdgeStyle;elbow=vertical;curved=0;rounded=0;" edge="1" parent="1" source="IJ2NC7NCbfXvm49nyCNM-3" target="aM9ryv3xv72pqoxQDRHE-6">
          <mxGeometry x="-0.0004" relative="1" as="geometry">
            <mxPoint x="360" y="-2585" as="targetPoint" />
            <Array as="points">
              <mxPoint x="550" y="-2640" />
            </Array>
            <mxPoint as="offset" />
          </mxGeometry>
        </mxCell>
        <mxCell id="IJ2NC7NCbfXvm49nyCNM-3" value="&lt;i&gt;this&lt;/i&gt; :Empleado" style="shape=umlLifeline;perimeter=lifelinePerimeter;whiteSpace=wrap;html=1;container=0;dropTarget=0;collapsible=0;recursiveResize=0;outlineConnect=0;portConstraint=eastwest;newEdgeStyle={&quot;edgeStyle&quot;:&quot;elbowEdgeStyle&quot;,&quot;elbow&quot;:&quot;vertical&quot;,&quot;curved&quot;:0,&quot;rounded&quot;:0};" vertex="1" parent="1">
          <mxGeometry x="590" y="-2780" width="100" height="510" as="geometry" />
        </mxCell>
        <mxCell id="IJ2NC7NCbfXvm49nyCNM-4" value="" style="html=1;points=[];perimeter=orthogonalPerimeter;outlineConnect=0;targetShapes=umlLifeline;portConstraint=eastwest;newEdgeStyle={&quot;edgeStyle&quot;:&quot;elbowEdgeStyle&quot;,&quot;elbow&quot;:&quot;vertical&quot;,&quot;curved&quot;:0,&quot;rounded&quot;:0};" vertex="1" parent="IJ2NC7NCbfXvm49nyCNM-3">
          <mxGeometry x="45" y="180" width="10" height="30" as="geometry" />
        </mxCell>
        <mxCell id="aM9ryv3xv72pqoxQDRHE-4" value="" style="html=1;points=[];perimeter=orthogonalPerimeter;outlineConnect=0;targetShapes=umlLifeline;portConstraint=eastwest;newEdgeStyle={&quot;edgeStyle&quot;:&quot;elbowEdgeStyle&quot;,&quot;elbow&quot;:&quot;vertical&quot;,&quot;curved&quot;:0,&quot;rounded&quot;:0};" vertex="1" parent="IJ2NC7NCbfXvm49nyCNM-3">
          <mxGeometry x="45" y="110" width="10" height="30" as="geometry" />
        </mxCell>
        <mxCell id="aM9ryv3xv72pqoxQDRHE-9" value="3- +getSueldoBase()" style="html=1;verticalAlign=bottom;endArrow=block;edgeStyle=elbowEdgeStyle;elbow=vertical;curved=0;rounded=0;" edge="1" parent="IJ2NC7NCbfXvm49nyCNM-3" source="aM9ryv3xv72pqoxQDRHE-4" target="IJ2NC7NCbfXvm49nyCNM-3">
          <mxGeometry x="0.4951" relative="1" as="geometry">
            <mxPoint x="-230" y="120" as="sourcePoint" />
            <Array as="points">
              <mxPoint x="-130" y="110" />
            </Array>
            <mxPoint as="offset" />
          </mxGeometry>
        </mxCell>
        <mxCell id="IJ2NC7NCbfXvm49nyCNM-10" value="" style="html=1;points=[];perimeter=orthogonalPerimeter;outlineConnect=0;targetShapes=umlLifeline;portConstraint=eastwest;newEdgeStyle={&quot;edgeStyle&quot;:&quot;elbowEdgeStyle&quot;,&quot;elbow&quot;:&quot;vertical&quot;,&quot;curved&quot;:0,&quot;rounded&quot;:0};" vertex="1" parent="IJ2NC7NCbfXvm49nyCNM-3">
          <mxGeometry x="45" y="240" width="10" height="30" as="geometry" />
        </mxCell>
        <mxCell id="IJ2NC7NCbfXvm49nyCNM-7" value="5- +getNombre()" style="html=1;verticalAlign=bottom;endArrow=block;edgeStyle=elbowEdgeStyle;elbow=vertical;curved=0;rounded=0;" edge="1" parent="1">
          <mxGeometry relative="1" as="geometry">
            <mxPoint x="460" y="-2600" as="sourcePoint" />
            <Array as="points">
              <mxPoint x="470" y="-2600" />
            </Array>
            <mxPoint x="640" y="-2600" as="targetPoint" />
          </mxGeometry>
        </mxCell>
        <mxCell id="IJ2NC7NCbfXvm49nyCNM-8" value="nombre" style="html=1;verticalAlign=bottom;endArrow=open;dashed=1;endSize=8;edgeStyle=elbowEdgeStyle;elbow=vertical;curved=0;rounded=0;" edge="1" parent="1">
          <mxGeometry relative="1" as="geometry">
            <mxPoint x="460" y="-2570" as="targetPoint" />
            <Array as="points">
              <mxPoint x="550" y="-2570" />
            </Array>
            <mxPoint x="640" y="-2570" as="sourcePoint" />
          </mxGeometry>
        </mxCell>
        <mxCell id="IJ2NC7NCbfXvm49nyCNM-11" value="6- +getCantHijos()" style="html=1;verticalAlign=bottom;endArrow=block;edgeStyle=elbowEdgeStyle;elbow=vertical;curved=0;rounded=0;" edge="1" parent="1">
          <mxGeometry relative="1" as="geometry">
            <mxPoint x="460" y="-2540" as="sourcePoint" />
            <Array as="points">
              <mxPoint x="470" y="-2540" />
            </Array>
            <mxPoint x="640" y="-2540" as="targetPoint" />
          </mxGeometry>
        </mxCell>
        <mxCell id="IJ2NC7NCbfXvm49nyCNM-12" value="cantHijos" style="html=1;verticalAlign=bottom;endArrow=open;dashed=1;endSize=8;edgeStyle=elbowEdgeStyle;elbow=vertical;curved=0;rounded=0;" edge="1" parent="1">
          <mxGeometry x="0.0032" relative="1" as="geometry">
            <mxPoint x="460" y="-2510" as="targetPoint" />
            <Array as="points">
              <mxPoint x="550" y="-2510" />
            </Array>
            <mxPoint x="640" y="-2510" as="sourcePoint" />
            <mxPoint as="offset" />
          </mxGeometry>
        </mxCell>
        <mxCell id="IJ2NC7NCbfXvm49nyCNM-19" value="&lt;b&gt;return &lt;/b&gt;sueldoNeto" style="html=1;verticalAlign=bottom;endArrow=open;dashed=1;endSize=8;edgeStyle=elbowEdgeStyle;elbow=vertical;curved=0;rounded=0;" edge="1" parent="1">
          <mxGeometry relative="1" as="geometry">
            <mxPoint x="90" y="-2300" as="targetPoint" />
            <Array as="points">
              <mxPoint x="185" y="-2300" />
            </Array>
            <mxPoint x="270" y="-2300" as="sourcePoint" />
          </mxGeometry>
        </mxCell>
        <mxCell id="IJ2NC7NCbfXvm49nyCNM-21" value="" style="shape=image;verticalLabelPosition=bottom;labelBackgroundColor=default;verticalAlign=top;aspect=fixed;imageAspect=0;image=data:image/png,iVBORw0KGgoAAAANSUhEUgAAAtsAAAHZCAYAAABXUPc+AAAgAElEQVR4AeydW6gt2VX+4/8hL+KbvgmKDxEEfRFB9EUaREVEfBBE0iABwQiKbWvwhp60xuMVgxdCMDESL+2DUXPEBrE1MeYoGI830jHRHCOm463baGJi7NzWv3+r+9tn7HFm1Zq11lyrZlV9BfvUZc455hjf+Masb9WpvdcLXvCCF+z8YwzMAXPAHDAHzAFzwBwwB8yBs3DgLEYt4P0hxhwwB8wBc8AcMAfMAXPAHPAnGH/YMAfMAXPAHDAHzAFzwBwwB87GgbMZ9icZf5o1B8wBc8AcMAfMAXPAHNg6Byy2/UnOHDAHzAFzwBwwB8wBc8AcOBMHDOyZgN36pzjH7ycZ5oA5YA6YA+aAOWAOWGj6w4Y5YA6YA+aAOWAOmAPmgDlwNg6czbA/yfjTrDlgDpgD5oA5YA6YA+bA1jlQL7Z33oyAEVg0An5qUb/eGStjZQ6YA+aAOdCIA/VAojIaTWo7/pRrDlyYA67f+rXO65yxMgfMAXPAHGjIgXowfbOux6phgixKLyxK15o716/rd63cdlzmtjlgDnTOgfoE+WZdj1XnSbeA36CAd/26fr0umQPmgDlgDszCgfpJfbOux8pkNla9ccD1a072xkn7Y06aA+bARjhQn2jfrOux2gh5/IR8QU/IXb+uX69L5oA5YA6YA7NwoH5S36zrsTKZjVVvHHD9mpO9cdL+mJPmgDmwEQ7UJ9o363qsNkIeP9n2k21zYEEc8LrkNdwcMAfMgVk4UD+pxXY9Vi3I/OCDD+4++MEPAvvV9uSTT+4eeOCBZgKHOZ566qndI4880swmtu7evdvUzxZ4bt0GJNo6Bo7/smuY8Tbe5oA5YA7sOVBPBN+s67FqQa5zCOHs1znmsNi+LE9yTofOXb995mUoX77ufJkD5oA5sBoO1Afim3U9Vi0K5BxCOPt1jjksti/Lk5zToXPXb595GcqXrztf5oA5YA6shgP1gfhmXY9ViwIZE8KPP/747s6dO1evmTzzzDO717zmNdfO9WqIxC+vdmhjPD7mOeiLLTb2skFfxmiLbbzWwust2pgnvkYSbdJHc7fAyDbqOQn2xqseL2NlrMwBc8AcMAcacaAeSN+s67FqkRyEcH5n+4knntgLJgQrbfRhrtK5+krsIsbpK7ucR7HNMaJZNhnH+9w6jzExVvaZW8f04Vjvlkf7ee5oz8fn55br9/wYm8fG2BwwB8wBc6DAgXpQfLOux6oA9OSnilmoRptZ4EbxSz/OJXhLopnx/MQ5GJO3+ASb/nHD/sMPP7yfh7Hyj/n0ZDv6oXbNrXPvL8MrcmesL4O1cTbO5oA5YA6YA4ED9WD4Zl2PVQD4aIEThXC2lwUrojY+XY4id4rYlkDP80V7tOncYvuynMh5mXLu+l1Orqbk1X2dV3PAHDAHuudAvYO+Wddj1YL4LcU2T6gRyPiFXV5B4TzOEa9n/xH3UczHV0U4jm30lWiP9vPceQ6fn5dfrt/z4mv+Gl9zwBwwB8yBAQ7UA+ObdT1WA2BPesot8Qvu2iRipz7Z1i8tyg7j8TGLYZ6CI8y1ab78S5C3b9++elUkt2ku/T3wbFNzt8DINuo5SU6NVz1exspYmQPmgDlgDjTiQD2QvlnXY9UoOU3EUXyHuie/7Mtl+eT6vSzeW+V36bW1rWLhuF1z5oA58DwH6oHwzboeq54KzGJ7mXlrzSHXr3nQmlO2Z06ZA+aAOVDFgapO+yesvlnXY9UT+Sy2l5m31hxy/W6LB/wdfmq/NY9sb1s8cr6db3OgCQfqjfhmXY+VyWmseuOA63fZnOSXkLXpdykQ0/F3LPh9iPw7FPp7/Pl6/N0JfllaG/0R6vqFangc55Y9ruuDPL/DwYZNrsW/zz80trf6sD/Lrg/nz/nrnAP1CWIx7TwY+/fsDdA5MgYlDrh+l8sLRGz8iz+l/PLLzohw9ghrflE5PtlmvAS0hHf+i0TYlYBX3zw351nsc00+ZbGt6+zpF/vGNh8vl5/OnXNnDhzkwMEOV4soN2tvRsAILA+BGzdu7J32gli/3s2FlYQwCeMp8s2bN+/74ij5JmEsRupLqLLYLv1lI8YgfBHVEs+yK2EuXyS8aY+iviSs87X4ZJs5D31okA/e989V58g5MgeqOVDdkXXySngb4HrcjJWx6oEDrt9l8rAkeOETopfXNRC3+bwktmPfyMdTxba+LVY2o9hGzEdxnc81xvtlctN5c97MgWoOVHe02H72BmdiGYOlcsBie7ncLYnUKGrhJKJ56Mk27YjeKHzFY+zwBD2Kds71NDvPzbmehDNmTGwzH/2ZSx8aSj7IF++Xy1HnzrkzB0Y5MNp4TVz6Zl2PlUlnrHrjgOt3uZyUUN0/8Xj2H4ldhKw2fZmURLPa9AuN2YaEOTxFWGujP/YltmlHIGuTPa4fEtvx9RXm4xcpLbaXy8Pe1jT7Yy4tiAP1yWKxXVBg9vXZm6HzZQzEAdevuSAuHNojiKPYPtTf7eaWOWAOmAOjHBhtvCbWfLOux8qkM1a9ccD1a07WcJKn1Ty91hPymjHuY26ZA+aAOTDKgdHGyWJb/1UZ/6tRCdB/Keq/EfXfnIgAjjVW7XEc/63JeF2Le43DjrY8Pza1xSc2Gsv80WY+lu/YkG3sxP+K1RhsZXv0zZv6lNrko/yLYzV/qU3j8CX6zPiSr/I578FL/uW2c53j71iezzXvVuzCga3E6jjr1/XSOnLp2ne+6vNlrIyVObBIDtQ7XXOzZuHm3UEEYRR+kIMF/Omnn772zh7XtLDHRT+OPSTCNC6O4TiLSwRk7INPeueQNuyMkTj7gS02vT+psTEmxS2BrD5xj51og3P1L8WmsWOCmLiIP8bLccZEtubey1/FPbc/a5y/pn7XGLdjql/jjZWxMgfMAXPgLByoN1pzs0YcIrbzL8IMXY/CNPaJoiuL3EyEIUGKbQSp+pfEtuYvtWmc9tkPxCuxIpSxo36yyTkikljYqz3vsRPFNvPoz3QNxTZ0XbaHhHjEBJ/4pjiNOWaPH8yFz8eMZ4xwffnLX77H4RRbx/qwhXHUrzcjMBcCb3rTm45eI7ZQn46xXosYK2O1QA7UJ41F+lCAiC8EqASkhBPCjuuPPvroNQEchanG0jeKRYkx2co+DAlP7OSvDcYvjY92uc6caivtY3/aNSbPE2MSDvhYsik7UWwzRh82hmJjHPOoX7Q9NkZ5oM/QeGxF/DnmwxNPxdn0dBw8mF9bjAEbuV39iC/6q+OMr657X1+jY1iB/1i729rgbBzLOJp/ZVzMF+NiDmyCA/VB1iyWiDhEtQSzhJUEKOdR1Oo6ZItjEV56untIhA2JyyyCmVf+MF/05dAc9M994njiUFwxpnhdc4Ijm/pjJ25RQCu22B5FbRzLsfwUdpzHn4xJbIvH+IbvXOM4zhljyphEG1OPW9qaOvcW+sOhLcTpGK/XfC94mH995qUXftgP82PlHKhPcGmxjGIPERYFM20ItdI1gcoYibrYj3auI/Ieeuih0dcLJEglNmU7C0t8iX04z1tslx3tsxhUfLTThkjmWoyJ8yhUZSuOjX3iMX2HYpMd7YlV72iPjaEfH4boo7GlPdgoL/GYvtFGxqRkq/ZaS1u1c26pX6l+txS/Y61f68+Blfk3L/7nyKltOqfmQDUHqjvudekhYBFxerIt8YSA1LvBUWRiKwrTOJY2icZbt24dJbaxjVCUzxwzP+fyjb3as2+6rn0ek/tzjrDmlQsJVYQpIpy97LCPYzWOeBWzxuucPnF86ThimQWy+mdMdD3v4/iIG/1qxTZ4xddM9MFmKJaMb/bJ5/W1WsLKYuc0/EqY+lo9puZfPVbmlbEyB1bHgfqAahZLxKHENmRBqLFJYLHnmogUBWIeSx+EHU9s46sVGqt9SZBiV+8Wq18UjSXRidgbev0CG1kM5ljoo3ixH+fN/sexHMen38Ssd81Lsclu3Od+wg3b6sdxxkRteU8ciiHiRr9asZ1tHjrP+B7q7/b62gUrNmM2DTPj1Q4v868dlualsTQHFseBeodrFsssmKNwhBxRZCLmtHGcx4pMiL0sVtXGXkJTttjn/hLBtD322GN7cRuFqOxFkalr7BGC2GST7RiL+krkSqjqeox1b+TZf5iLduxEsc012vgZiu3mzZv7MbLFPs8ZfaY9C236Kxb5qX3EgeOIVRTb8hX7OQbZqt1bbNfXYi2msR85iuc+Pi/exvc6vubfdTzMD+NhDmyKA/XBerGsx8pFZKx644Dr15yck5Pmn/k3J/88t/k3MwfqE1BaLG/cuMFlb0agOQJwa+biWNX8JMh41q93xqotVuZfWzzNT+NpDiyKA/XOerGsx8pFYKx644Dr15yck5Pmn/k3J/88t/k3MwfqE+DFsh6rmZPqJ5jPvvfuHFzHwPV7HQ/z47J4mH+Xxdv8Nt7mQFccqHfGi2U9Via5seqNA65fc3JOTpp/5t+c/PPc5t/MHKhPgBfLeqxmTqqf6vrJ9n0ccP26fudcl8w/829O/nlu829mDtQnoGax1J+qK/1JOf0pOv6UXAxaY+Kfrqu9Fu3w5+nyFm3qz/LRJ/+ZOsaWfI72OcaeNo7lZ46p9Gfs1Ffj2WvOUlv0cSy23BbHZZ+ZM/uaY9R5/rONun7OPb6x5RiYE4zi33A/px9rtA2ua4zLMdWv4XNiZf4tI09zcsRzmyMr5kB9cmsWSwkiRCQiMAKHOH366afvE3v6u80ILcZrDII1fskM9saEIu1RpEnAxjGaK87DfHzDJUIu+yxf4p44+OGa5gCbODaLbX3Q0LhoL9qRDdlV/xybxh8SxMR+CBPZmnOveBU/ceuDCH4Jv/y3wuf0eWlz19Tv0mKyv/Xr99xYmX/LydXcXPH85soKOVCf1JrFEtGEaOUry6PIHboOoAgrfugvsSWgJTIfeuiha8Jb7XGvvsyl61mwl8S2hDHj8T2Ol524l79ci3FlcYjIxTb9iC3iEe3JDv1j/MKE9lJsY9dpGxLiGRM+aNCXMcf+4B/+Hjs+j4s+CuNXvvKVfrJ9Qo5q6jfnwefH14Sxu46d+XcdD/PDeJgDm+JAfbA1i6WEkcShxKZE7qOPPnpNdNIuUcqYLEixRzvbITGnORkTSYxNjZUfsQ9t/Mj3Q8JT/ZkjjonzxLjok4V09E92Yh+Nkd9DsTEPIl/9ot2hMfTBV9rHxoODvjZeuPFhRJtyxdxxw270I7fTl1iJMfaLxyXfI9axr4/rahjcjVUdVsapPU7mX3tMzVNjag4shgP1jtYsllEQSdBBBgQXP4goiTSux/MoUCOB6FPz+kBJoGGH+ZibY4lGCb3oL+3yM86fj2OfOB7/9dpLjCVexxZj9AFCccVr4MwmnxlDbHnjWrYXRSzjI9YxjohJvB6Ps9jGV82ZY4qYRBtTj/GLreR3xHqqXfd/wR5X41C/3hmrtlhBQGPaFlPjaTzNgcVwoN7R0mIZRSCCKwoi2hBNpWsiiMTVXgk8/48EHX0k6niiWhJgssOecVFsqo1xEq5ZbHOOiIxbyYZssY/CMsamNsbz2gt7/KcPxzEu+saxsU881rxDsalde2KV/2Nj6Jf9kQ3ts9jWU261RxsRE7Wfssc3fRCRnYiXrnl/Wv0av3r8jNVpWLHGGsPTMDR+xs8cWCwH6h2vWSyjIEJoSmTyXjAkQUQh0jhWO3sRKLZzjb4S8bKlvnnPWAlNtWFbT5u5lsV2FonRf9nI+zgm9+ccH27durXfKzbiUNyyF8dqHDHQzj6+A16KTXbiPmIaxXLuEzGJbfE4js+40Y945G/EJNrgmLa85TzlMdk+5xGvUn9fG6/lmvo1huMYGp/j8TH/jsfOvDN25sDiOVAfQM1imQURgoxNooy9RCciTMciUhTHWeAxNgpQjdGe9ijisEX/OEe0GeeSDfYlv3I7fbiW4+Uac/BUNvqqaxqXx2axTTt+q3+OjfbST+6HjYiJ5omYlOxwDZ/1NDvipv7YYD7O8VO+qv2UfSk3JaxPmWNrY2vqd2uYON7yOnIOXMy/y2F9jvzZpvNnDpzEgfrBNYtlFkRRsJEoxBkiTaJPYi0mkfa3v/3te7Ga22njJ/bXMX3zFgWgBC99EKCPPfbYNSEqO9lnXWePPW0c53jVFx+j2Oa6xL/Gs9erEiU88AMb7Idiy9fznNln5oz4yaeIk2KIOHCc/1ILdpQf2vU6jq7JTs1efuCftuzTENY19t3H72ybA/Vr/Tmwoq7PYdc2582r8Tf+5kAVB6o67RdJL5b1WJl8xqo3Drh+zck5OWn+mX9z8s9zm38zc6A+AaXF8saNG1z2ZgQujgDcm7l4FjU/CTJe9eudsWqLlfnXFk/z03iaA4viQL2zXizrsXIRGKveOOD6NSfn5KT5Z/7NyT/Pbf7NzIH6BHixrMdq5qT6Ceaz78g7B9cxcP1ex8P8uCwe5t9l8Ta/jbc50BUH6p3xYlmPlUlurHrjgOvXnJyTk+af+Tcn/zy3+TczB+oT4MWyHquZk+qnun6yfR8HXL+u3znXJfPP/JuTf57b/JuZA/UJ6Gmx5E/F8ef72J8TQP1JPmLXNuVP2/Hn6+Kf2junr7Zdz+UtYgV/txi3Y+6jLsy/PvLgenAezIFZOFA/aU+L5aXENkI5/71nE7WeM8aqH6x6ql/zoh9eXCoX5t/2cn4pbnkec2sBHKhPUk+LZWuxzdfJ88UsMWF6qj30JJvrFuL1/InY+vjyuPVUv87/5fM/N+bm3/ZyPjfnPL851xEH6pNRs1hKBCNetcWvCydwnhZri994qG8p5JsKtek1jHiOjdI88XUNjm/durX/BkbNIfFcskWfknDmmsbHpHE9bhLet2/f3r/eom+GlP+M5RhcsKctCnmOtdGHvrE9zu/jet4aq+ewglvGwryZiwPmn7k3F/c8r7nXAQfqk1CzWCKCo3CVwJVojOKT4DmXGNdXfqtv6fypp57aC+2hebCHXcR2Fslck+3s11giGKNN4+W75tO5RLbsxXg5jj5hS7ETD7Hp6XqOXfa8r+ersbqOVU39GrPrmBmPdniYf+2wNC+NpTmwOA7UO1xaLKMQRUxm0QghuM5PSeDSX7/oiMCUmGZcbNO5BGlpHnzR0232zClC0h+hm7fYR32H9lkAKy7151zzl67l9hhfFN4aGz8c6Jr39Xw1VtexKtWvMbqOkfE4Hx7m3/mwNW+NrTnQPQfqHaxZLKOAVPIlSmvENq+Q0I+x2RbnU8Q2AlY+xLG6dsxesTA2HpfOdU0CPPeP8Vls1/PwmLx5zAv2nzONg3k2Fwdq7h9z+eZ5XRfmgDlwZg7UA1yzWEYBKcejyORY4pN2zvUqBU+Op4jt0usq2MNu6akw1+Lc8q92nz8sxLgUi+aXTc41Z+4fsSJ24mHPWNo4jx8YZNP7es4aq3tY1dSv8bqHl7Foi4X51xZP89N4mgOL4kC9szWLZRSQIkIWmYhPbQhKxtB3qtjGDr+QqE2iFlscZ6Eqsaz+er9awjYL5dyfcbEP/mKDjblynPjBNfmV2zNW2NAGLnwIyTEIU+/reWusnsMKbhkL82YuDph/5t5c3PO85l4HHKhPghfLeqxaJLb0gaGFXdu4bB57wdv1u828m3/Oey8csB/m4oY5UJ9836zrsTqVUPm1klPtefzlctcr1q5fc2BObpp/5t+c/PPc5t/MHKhPgBfLeqymJvXQKytT7bn/+XK1VGxdv+bEnNw1/8y/Ofnnuc2/mTlQnwAvlvVYzZxUv5v77PvyzsF1DFy/1/EwPy6Lh/l3WbzNb+NtDnTFgXpnvFjWY2WSG6veOOD6NSfn5KT5Z/7NyT/Pbf7NzIH6BHixrMdq5qT6qa6fbN/HAdev63fOdcn8M//m5J/nNv9m5kB9AuZYLPnzePoimxJQtX+xQ3/ejxi06e97l+ye8xp/ApCNP+/39re//epPA55zTtuu5/lasYJza43NcfXPb/Ov/xy5jpwjc+BsHKg3PMdi2VJsZ9GOUNffwL4UwfLf1o5/h/tSPniees6vCas56ndN+DmW0+rG/DsNP/PP+JkDi+ZAvfNzLJbnFNt8Ycw5xDZ/WQS7+J6LI39xTwuxPTZfnt/n9XxfG1Zz1O/aMHQ8x9eP+Xc8duadsTMHFs+B+gBqFsv8J+z0DZFZZKqfviFR58zBhgiFXFlsH/qWRUSuNs1dsqP54jz01xZFOH3iJp/jN0jq2yiZS9fVT0USfccedvmJc+U+0Ub0Q/OBT/R7rldjFKP39fV0aazg3KXn9Hz98uHSuTH/zIVLc87zmXMdcaA+GTWLJeIwikcFekhsM0bCUkKY8yi24zF2s6jNwpVzic8sSolF88lH7Zn/7t27e/uMwwZ7tbPP1/GF11RyvziG44xD9Dnb4BwhzT7biThnX3Jfn9dzfM1Y1dTvmuN3bPPWgfk3L/7mv/E3B2blQP3kpcUS0acN4YjwQyDqyauSm0VmFtTx6Wy2p3etmUviWXYl0qM9tUURyrHsqJ2xsie/NTd7iXH6sRGfxsa4943P/pNjVt+4zzhEsR2PNUbxcU573KLvpQ8EsuF9PcfXjBXcWXN8jq1vnpt/fefH9eP8mANn5UC98SmLpcQvIhohm0Wm2hGtJSGspMe21mIbnxDgN2/e3Ituievom/xgL7FLv5Ivse/QccYhCux4rPES23m+eA5GFtv1PBa2W9tPqd+tYeN4z18/5t/5MTaPjbE50C0H6h2bulgiWvU6hoQtwhAycM6TYEQj54hKfjJRothmTHytgjbOZSOLVc7j09/8ZFvtiO3Yln2LPjGGnzx37DN2jG0wARv6YUtx04YfESPFG/sxjjExNovteh6P5WfNbVPrd81YOLbL14v5d3nMzXNjbg50w4F6R2oWS4Rv3CQkSTjH2hCHiE4JZT1NVrteyYhiGxvRPkIUO7KR56BdwlXiWPbZx/ZoN/qWx8UxEuWyyTji0PXolwg/JrZzfNiVjYzP7du3r4l2YSsfNJ/39fxeO1bwae0xOr5++W7+9Zsb141zYw6cnQP1E3ixrMfKxDVWvXHA9WtOzslJ88/8m5N/ntv8m5kD9QnwYlmP1cxJ9RPMZ/8XxDm4joHr9zoe5sdl8TD/Lou3+W28zYGuOFDvjBfLeqxMcmPVGwdcv+bknJw0/8y/Ofnnuc2/mTlQnwAvlvVYzZxUP9X1k+37OOD6df3OuS6Zf+bfnPzz3ObfzByoT4AXy3qsZk7qfULL/jh3rl9zYM51wPwz/+bkn+c2/2bmQH0CvFjWYzVzUi22/WT7Pg64fl2/c65L5p/5Nyf/PLf5NzMH6hNw7GLJn6XTn7DLfy+6FLz+dB7zLelP2enPBCrWGJvaiEkbWMQ+PR7jd/wb5Mf4WJPzY+x6TH3tghWbMZuGmfFqh5f51w5L89JYmgOL40C9w8cullFs1xIk/z3q2nFz9kNk87fD79y5c03USGgvQVzPiZ/nrq/FY7A6tn6PmctjzpvLJeJr/pkTS+StfTZvG3GgHshjF8utiG3ifPTRR/eCmw8LShDX+dH5Gvd86Q4x8sHilPj4oBKxO8WWx16v7WPr1zhex9F4HIeH+XccbuabcTMHVsGB+iBqF0ue8GrL3/IYXynQE1/1jYI0P9mmjW9N5Jsl2fQNkyIhdrXx6gn9Jdo4vnXr1v4bI/UNkLSVbGWf4mss2NEmO5o/+osveoqtb34svVoSx8oX7Gss7Tlu5sWW+kc/GIdY5RpbxmjI/zyOsfIXPOJrJPTVFu0LT41TbOwZw9w6jj5qLuEk2zGuaMvH9fWasQLbfM3nx+Np7KZhZ/5Nw8v8Ml7mwKo4UB9MzWKZxVkWYVF4RSIhtngFg/5cj+KVc8RaFL7RDn0RhMxNX4lR2WJsFG/0w5b6x/HY5Sf6xnGcT+fZH42Lvmc8st3czjm+SrTmuEvnmpd9jBMb8TzOTd+xcYot+xdtYB9/4rXSMfOoX8lHzZU5ULLla/X1mrGqqd88xufH423srmNn/l3Hw/wwHubApjhQH2xpsURwaUNIcS7xJCIhtLjOeRReEpYaz179omBlHDYYK5uxPdqkPYu2PDb6rLn1lBa7HEeRqqeu8o058J042atdttjLntriWMXAnusZL+JRrNn32Mb4GHs8pq2EQ/QR29kG5zE2joeebGMr+874/BP9isd5ruxvtuPz+7Gdggn5mtLffU/D2/hdx8/8u46H+WE8zIFNcaA+2JrFsiQeEXUSmxJbWYTm8yimIWS0wXlsl00RN4u2PLbko8Zqj8hEcCMmH3744f1eMdAnCtLoi8bjEz+cMz8/aov7ki95bJw3tmGHc9mOx7RFHHJbPOeYH/kVY4tiO/uazzU+72vniv5mGz6vr9MhrGrqd2isr5+O/9YxNP/Moa3XgOPfdA3UB1+zWCI8EansIZZEqwSjhFcUcfSjP0+D1S8L2CyYYztj4pNo2qIPeWz2aagA6Ken1/JbfTnXU13sc642xaNXWxRb7kO/jEP2LfuOjWiHY/pgi+OIQ8Ql+qgPNnFctBnjjv7FuZiP8cKA86GfOI7jobkstocxHMJ2yvWa+p1iz33Pm6+14Wv+mS9r47TjMacncKAerNrFEpGnDfGHIJOIjsIr9qMP72xzTeIUGxJzCDvZILgotjnHrjZELuPoQ1seq/GIe22aJ9qhLQpD7GiTqI1iFLv6kaCVzzEmbOg1k5IveU7ZoC9tsZ1j/FJb/OXDOIdEvObml03juGhzSGwrJmGADXLGdcUXfRUW2cehuRQD9oWvbHh/j1vHYgGux471uNPx3zqG5p85tPUacPybroH64JeyWG71CSkiNgpZF3Y9t7eA1VLqdwu52GKM5p/Xoy3y3jGb989zoB6IpSyWPF3d4pNRi+16Lm9xAVxK/W4xN1uI2fzz+rQFnjtG83yAA/XA9LpYxlck8JGt9DrDAACr+a91i+16Lu3ZyNgAACAASURBVK+dC6X4qIvSdV8zby7BAfPPPLsEzzyHedYpB+oT48WyHqtOk22xFd6r31qOXL+u3zk5b/6Zf3Pyz3ObfzNzoD4BXizrsZo5qRbVGxbVQ9xz/bp+h7hxievmn/l3CZ55DvOsUw7UJ8aLZT1WnSbbInzDItz16/qdc10y/8y/Ofnnuc2/mTlQn4BeFsvSu8nxz9UBKH/WTn+ZIx63BJs547crtrRtW/W8NFZ1WPVSv85XXb7WhpP5t828r43Hjsc8PpID9cD1sljWiO0jwfCT3w0/+V07Z3qp37Xj7PjK9xTzr4yL+WJczIFNcKA+yLkWS76oRV9QAykvLbaZGx9OKYgWNk6Z32Preb5WrOaq37Xi6bim1ZT5Nw0v88t4mQOr4kB9MLWLpb5NkP5s+jN8vM6hLf4dbMRz/OZDjcnfWKgxNWI7vjoSjyHvkB/5TwjGb5XU3JH8+TUS7PKtivpmSn2DI/HHDf+jHR/Xc9BYHY8VHDR+x+Nn7E7Dzvw7DT/zz/iZA4vmQL3zNYtlFqBD5IiCmeMoZhGnErqlb4Okf2mLNqLAjseM5Vx+ca65OOZHbYf2OVbsyhZj41zEFOc9ZNvt9bw0VnVY1dSvsazD0jhNx8n8m46ZeWbMzIHVcKA+kNJiGZ/aIi6jUM4kQWzGTeIzilLGIGIRreyHxHYWxXEMNrCtPjrWk3J8lG9xnJ7IR9GufqU9Y+MvSGoe9cXe3bt39zFYbNfzTPh53xazUv0a47YYG89hPM2/YWzMG2NjDqyeA/UB1iyWQ2I7C+p4zrGEMYSLAviSYltkZ34Ed3xKrba4L4ntKOQttuu5FXH18Xlwq6lfY38e7I3rC6Df1UMO42GemQPmwMY4UJ/wmsUyC1CBGZ/66gkz12i/lNjWXJpX5yVRHQW/Ysj7HCt2Lbbr+ZTx9Pl5saupX+fgvDnYMr7mn7m1Zf479s3zvx6A2sUSwRk3zhGmPC1m4xcH+UVCid4xsQ1BaWfT6x25P32yOMY2/WiLxzrfGww24zxq03j2mpt++pkitmP8sis73t/D1FicDwt4bXzPh6+xHcfW/BvHx/wxPubAqjlQH9xSF8sstk3o+pwbq/VgtdT6NQfXwUHzbx15dD06j+bAURyoH7TUxRKxHV/vMFHqc26s1oPVUuvXHFwHB82/deTR9eg8mgNHcaB+0NIWS73OUnoFxGSpz7uxWgdWS6tf824dvFMezb915VN59d55NQeqOFDVaf+upxfLeqxMPmPVGwdcv+bknJwc4l/pL07N6afndp2YA+bAGThQD+rQYnkGp/yLXOEXMY1vPUeN1TBWrt9hbMyb82NT4p9+cVzftus8nD8PxtgYmwOzcKB+UhZLb0bACCwPgRs3buyd9iJbv94Zq7ZYQcCIqZ5ov/KVr9x/+RffSxDbfdwWf+NpPM2BWTlQP3leLJ24euyMlbGamwOuX3NwTg4O8U+i22Lb/JyTn57b/DszB+oBHlosz+ygn3b4lRJzoAEHXL/1a53XtPZYDfHPYrs91uavMTUHuuNAvUNDi6WTWo+hsTJWc3HA9WvuzcU95h3in8W2eTknLz23+XchDtQDPbRYXshRP91s8HTTuarn+9qwcv1uN/c9cHmIfxbb5mUP/LQP5uGZOVAP8NBieWYHLbItsvdfSvTkk0/uuDHz99N1bO65fs2Beg7MidXQ/cNiexn5m5M7ntscWQEH6pM4tFi2BoFflHnqqad2/FmoeNxqnscff5xQrm1zfMOk/uxVnJsbD0ISH9UeHd2iyCzdjKd8Kygc4k+Lsb35zW/ec2uLv4xF/K1qyHbq101j9RxWQ/wr1bcxM7/MAXNgZRyoT+jQYtkakHMI7OgjQhaxpmvMx7dMziHA8lPaeI7Y5kNH9Avft/aNmMR/9+7d/VNt5QycYg51vbSPwryEaWnMGq9dqn7XiJ1jqr9PDGFl/p2O4RC2vm5szYHuOVDv4NhiWRJExyYfW3qyfayNsXFZbM/5ZEVPshGP8Rj/h4Qh4pEYxmLspY24TvU150vY8JQfjDi/c+fOtQ8lij/ndghT9a/dD81XO36OfmP1O4c/nrN+7V0DVubftvK9Bs46BnO2IQfqwRxbLEtiG2HDU1ht8Ukkx7dv37767/34tDaK7XhM0JzrlQDsIua4jj1t0RZCjXkQZvqWsizesBHHSPTKXnx1g7EIrRiXfMAPjuOmtmwzzkcf5nj00UevvYs8JAzVH5s59ogxvsZNvpQw5Fp8eix/S2OEo/LBOH60yYeh+Ydylfki3OmPLebTD/4xJ35rXO6j6/ILezdv3rz2vwUZi2ij1CZcZDPmUb71usfnXn2zX/e4vVYszL/153it3HVc5m4DDtSDOLZYZrGWHYviiDYElMQU54gcnWNLT7bj8ZD4zHNhS6KJfRSHmotYtGle2cnijnN+NDYKrCh8o6/05Zy+7OknG5pH+yjgJG5pG4o3zhljZYx8Zyxxsdc8YzbxcUhsZ1sxTo7BV35nn7N/nEccOBf+ua/8pr/s61rmk67nfe4X/YvHjOOcfOW51CY8s808Z6/n8L1X3+xX/Tq8VKzMv/XneKnctN/m5gU4UA9yabFEmORNYlTiJbZLyEgUKkD6SsxkMSfhzVgJM43THntxk6DL4o7++VoUjFmA0Z92CdE8Nvqd2xgroSgssvCX/6XYSr7QX30ffvjhPR4xbo4VuzDBr7F5aIsxcq4PAMzFT94UR8yV5lDMnDO35o821TfipzyIP+oT7elareDN/SKmwpE+shv9lT+KXTFnmxrb+544evfR/tWvxz1idePGjd3nfu7nFnlW4t9nfdZn7Rjzwhe+sDimxxjt07I56vw5fzNxoB740mIpp8fEGn0QKAhlBA7nCCiJMM6z6JLAjmKuJI4Yix3scZzPo3gqteua/IliTG0xtmwv+p39YHwWisIhC8pSbCVfZJO5ZEuYyt+8py8b/Urz0D/GyHm0PTSmNI5rMeaIV7RJP34ifvEa+OiDVbShPtjSayS6VtrnfhHTUlyaK/bDbjzPNkvz9nhtrH579Nc+1a/NvWD1spe9bPfGN77xai2OfpX49+pXv3r3ile8otg/jvXx8rjgnDln5sA1Dlw7GV30SoulwMxiLYoT+tAeXzdAkElM0Y7I0Tl9S2I729TcEsqcS9BxTXaxrb66pnbOsYu4Q3xxHu3pXP0lxriusfiNjeg3bZxjl736sy+JtZLwK8WLH1GoR9ziHPlYfpds0rfku/KV8Ym2Gaen/rqOj8JS86qNc2HJtSH/mVO45jGMi+2yXdpnrGP88Vg2xYOMB/H4yXb9WlHKha9tA7+3vvWtu5e85CXX1jxyn+8fX/iFX7hf5z/1Uz/1vr7myja44jw7zxviQH2y82J5CCQEijaEE6JMIgzBdcwvSEab2OYc0YRIYkMQYVeCLos9fOZa3rimeCTY1UcfAjQ29s2ir+Qf4/J1+ac5aY/zcD3GVfJFY7EVt4wJbVGgZ184x1a0k/OF+ARbbfL1kNiO40rzRL9yXoRzaQ5syQfhpP7Chf2Y2KY9+kds0Ub0B+7GJ+lqi/7HeXs8Jr4e/bJP9WvwErD60i/90r2I/vRP//RrfMv8e8Mb3rD7ju/4jmt9lhCffVwXX51P5/NCHKgHOi+WpziIsJP4OsWOx9bnb6lY6cNP5Iv5Mz3vLet3qVyy39N5cwxmP/ETP7F77Wtfe01IR/595Vd+5e4d73jHtfZj5vGYy+TTOBtnc+BkDtQbiIvlqcBbLNXjfirWaxgfn2TH4zXEdqkYWtbvpXz2PMtcJz7lUz5l9853vnP3tV/7tVeCOvLvLW95y+7FL37xVZvzvMw8O2/OmzlQzYHqjqyVzRZHi+163E1mY9WCAy3rt4U/trFuXiO0EdwIb3It/iGyEdvO/7rz7/w6v+bANQ5cOxldALVYGsB6zIyVseqFA65fc/HSXORVkh//8R+/JrZ5fYTXSC7ti+cz/80Bc2BGDtSD75t1PVYzJtQ3sWefohn/+zFw/d6PiXlyXkz4JUn+shS/NMnGL0Tyi5HG/by4G1/jaw50x4F6h3yzrseqZ6LzlzR4jadnH1v4Rozxr4u0sLlkG67fddTv0jjInwHkzwGyIbz5k39Li8H+unbMAXPgRA7UA9jbzXrsvW/+pJv+VvcxAOkvYOzvEM//07NArRXQ+U8Vgs2WYh3iwhiXhsbUXO9J8PdWvzX4uU/9+twzVnzRDRtfYtOzn/ZtHXxzHp3HDjlQn5TebtbnEkgSnz2L62OJxF/yiHGtOVYwquVIbb+puGO3l6frvdXvVCzdv36t7g2rz//8z9+95z3v2fH17L35Zn+WyyvnzrlbEAfqkzV2sy598ci5QTiXQEIc6QtTpsSAcMUnnh5PGXfJvln8HRsrPt+5c+e+b8e8ZCw1c8UPF2P5OReXMt41Pp+rz1j9nmvOc9glDm9GwAicjsA56tM26zWVsdoUVvXBUtpD5BgS24gNbRKwQ9/ap1ccEHHaJFbiuXygreZbKOkf/Yjf+ofYxAa+6eu4NafmyXvGaNMYfYuhritWPTnWdcbKHkJQGz4RN9doz+Nkj7aSz1zDb9qzL7oum5qDvodiLeVKdqLvzJmvXyJWxZB94To/kZeKJcavfuAwxCX6xFwxV7Qhu/Ihxh3xHcOHMdrEqeg/316pTfmU77V7xtf27bnfWuLoGWP7Vn9fXCpWrqP153ip3Fyp3/WEGyvOKGoEVBSAupb3EtjsJRIlVkrnvIfNXNhBdGQRqnP6DL2zjX3NwT6KGwmiKKayz/GcfhI/MRb1oU22om36xlgk2NSXcfJRsWqe7DPtXFO75mbPnPqa8XisNvDSnHFc6TjGl23Rf+5Y8QEcIm4lXpZiw3dxR3Z0nrnEOR+O2Oc8ck6bMMWu/BnCJ/vDWPpynTngp+zl+fLYsfOx+h0b11vbWuLoDVf7U38vXANWrqNt5XsNnF14DPWEKxUnIiBviI2bN2/uxYtEQgRJAkLjJHazkMiCjvMoDqOQwT7jaWfPHFFs0zduEjMlkZrtRt85ZkzcJMri/PIHLPLGeHDRONlnXq5nHGgnHkQzGJR8jtcYn+fFbsYTu4diHcpVtlWak7jPHatiiBgrtxk3zod+Mg4xlxFbjVeuSnmkPz/0ld0xfOhH/7iJG5nHssm88qV2j/3avj33W0scPWNs34bXirVg4zpaf47XwtWVxFFPuLHijGIQYLIwFliIjvhEN55HgSMbeiqrc0SIhIaETLRNO3aiSMliKZ5zzI9ssOdcYide5ziLq3ie/Y+xHbJDuwRcaVzEd8hnxmfc87nmkD9jsWY/4nlJbMe8yj77iJGuy49oU221sdIf/7Glsfk82lKf0h4bjFUbfolL2SZ95H8pNvrLluyW4tRc2UY8L/mvuTW+dj9Wv7U2eui3ljh6wNI+1N//1oaV62i7uV8blxcSTz3hxoqzJApKIoV+8YkzwiI+2ZbAAbws6ErCMYpi5tN5nEeCRzbpwzXOozBSwhBGPBlWH11X/3idY80ZBZrG0B776zr+MQd7rmlO8OCcMRJsOpedks9coz2LOuzH1xCyXc0r2/KPfcSQ85irnJvsY7Zzjlg1p3ASP2Is+BzPo1/xmD7KI9exqfOMA+eKJ+MtPEt5ZI6SL8qd/Im+MJf+RyO2y76u1ezH6rdmfC991hJHL3jaj/p74Jqwch1tM+9r4vDCYqkn3NTilPhhHJvEC+JCG0JCT68RKvRhD4hZ0MmehAa/UHjr1q29mMQeAkhjo0CSAKIPwpNfhJPowRd+ctLiGMaxMa98eO7Kbm8riiHssinW3F8fLJgPe9rwnTGKLY+TPcaVfOaaYop2GYd/sste/RTzUKyaSz7GXMU24Z59vkSs0fecW3wkVuUXTtBHWCh+9mNcoj1iCh7RhuwKJ82X5x/CJ1+Hn+KUxfb96xM4x9z5+H6MjIkxOcQB15E5cogjbm/KkXpjLs56rI4hKcIwirhjbBwagzgdet3j0NiW7ZeKlQ8bxNzS96XaWkv9riWOpfLIfp/3PnApfF1H68jjpfjieU7mS70BF2c9VlOJyRNMvZowdezU/vEp+NSxLfpfKtb4VLuF30u3sZb6XUscc/Hp0h+4WW/Y9D9gc8Xtea/fv1xH1/EwP4zHmTlQD7CLsx6rQ0nLrw6AbXz94ND4JbVvKdae87KW+l1LHD1zpZVvCHv/71K7+0arvGDHddRnXlrm2La6ynG9My7OeqxMcmPVGwfWUr9riaM3fpT84X+h+H2GUlvNtdLvHNSMc5/zr5+uo/NjbB4b48CBejBcnPVYBYCPvlHZhvFuyYG11O9a4miZ2ym24mskevKMoNamX8bOvxSs/3mL1+OrIRLW/IIv2/ve9z6Z3O81nte7tMXxxBDb5Ef+nzHZmRKz+96/lpID43I/LsbEmJyJA/XAujjrsTpTsq79aT9ubvHPKJ5rTtudP+8tcrCW+l1LHC1yeshGFNb6HYZ4jWMErwSshK1+UZs94zSPBDX9uEa7RDFt/LUf2aI995cd7emr/uzjXOrDNfkT/ZNvMR6N8f7wmuU6OoyReWSMGnKgHsw5i5OFNW5a4I8F4pBQjQv82BzZL3zUzWNs3LFt8eaEjXw+Zlc3Q3x885vf3MVfJRnz1231tVmDFXmv6dd7n7XEcW6cowhlPdO6FK/HY/kT1xQJ2tgG/nHT0+nSmloS2/gSN86jiNZc7PEP+3lTLPjHveChhx7yevYsXhG7Q8dgeqiP26dharyM1wgH6sGZqzhLi/hIQFULyCGbU8R2FP66OXATONXHPJ4bEn9/Gd/VVrqZqS3vY0ylm2zu7/P62lgCVnPVb2ts1hJHa1yyPdYg/V35+PQ61j7HrF/sNf6Q2GYdUd+4L61F+Rq243idj4ntsT9VSozE9vKXv/zaE/rol4/L65jrqIyL+WJczsSBemDHijMvqqc4y8LLgqwbgJ5ecP0Uu3Es/o69ghGFaRyXj0u+1Y7Ntg6dl3zOAhx/9NQn2sv94g039pt6zLue+DV1nPvX110rrMbqt9Ucl7CzljgugVWsc9Yl1oZ4jeMpYptaR9yWap5r+jImxZavyQfaWZOYm2ucS3hrrPa0q4+usWet43qMJ7b7eHyNcR2N42P+GJ/GHKgHdKw486KKk1pMGceGMGNx5DrtjOHJCxt7zlk4438bshjfvHlz8KlFnldzshAPzaHrUWzTXxvzM69syKbaaVMM9Inn+BNvRjmeeNPg5hI3zVfCBZ/zXFzjB5say3H0h/bsA+1gGp8YxTnxKQr2UlvGhJiZRz55X19Xl8KKvF5qrnPOs5Y4zonRmG3qVLXPMetBrF1qX/XPda3HusZaEzetaawTh8R2tMeaH7/NN68pWsfydd0rxmJ02+H1x3V0GCPzyBg15EA9mGPFWVpoWZy1EONwFIJ5kWe8xG9uY2xccLUIcz3Pq37cELKdOEc8pp9uPrLJgh4FrG40ikNx5RvPmOjEN70Gkn3DLj/5evSTuTSv+ssf+Rqvx+M4N9djzPFYbcRRshn9yzbjfD6ur6tLYTVWv5fyocU8a4mjBRa20V+dLSUnriNzZylcXYmf9YQrFWcWm/RBqPHkFFEcBVsUxqVxemIRBV0J5Cjao036RrE9NkcWsVHAY4c5GJ+FKG1xTvrEsfQnfolznYOLNsZoDq6pL9fGfKbtHGI7x4Af+CS/iJfcaFOeLLbrawdM5/4hf3P70GL+tcTRAgvbmL+ulpoD15G5s1TuLtTvesKNFWcUoAARRa+AiX1KAk/9Dont2B5t5nnH5mCcnqSX+h0rtvEBkcr4jEE+V7z0Z8OPki/ql2PVdfmq89I+C2Mw1NP80pwS27EfduN5tlma19fq6+vcWI3V77nnbml/LXG0xMS2+qmzpeTCdWTOLIWrK/GznnBjxVkSgohAfgQUAk5PgRFtNa8qaGzcR3EYRTN9ONcrIGNzxHEc4wt7bORxxIDv8iHGFX2hXYKa/lGYZt9kS/sobodwiT5rXK3gzf2ib/EYuzH+PCfx+sl2fc0oTz3sx+q3B/9qfVhLHLXxut8y6633vLmOzKveOboy/+oJN7U4JTwZx8b7yvEXaBBy8fUECXEARtCyce2xxx7bH+sfxCiCUIlQX/VnDkQh7UNzlERktM+8spHjiH7SJ2/4I99iO+PkmwStxsaYhnzOglnx6Qk958wd/ZMfeWwW2HnO+OGCY23KIf2xrbbov+b0vr62LoEVObzEPOeeYy1xnBsn2++r/nrLh+vI/OiNkyv3p55wpxYnAi2K7ZUDexZhg7iNYp5zfoxlPY+3itWp9dsLbmuJoxc87cc21w7X0Tbz7nqfLe/1E59anIjEKBSd9HrshVV8Is2Hl/hUW328n47rFjA7tX57wWgtccyNp/5XCjzZ/KF9W+sGOZ+bg55/W5zbeL7rkz21OOMrFIz1qwb1WG+clL4JPPuKTmsOTK3f1vO3sreWOFrhcYydodfNjrF1zjH46Q8B7dcCcuY6Og+u56wH2150zuqdd3HWY+WiMFa9cWAt9buWOObiBw9BSr/Xccgf/ieNLyY71M/ty1j7XEfLyJPraTV5qg/ExVmPlQvEWPXGgbXU71rimIMf+mVvBHdpfrWDMf8TeevWrf2T5fjKif4aUfwl7/i/lvE6op5vidR8sY05dJ15eYrNfGzMR1/Gs8fX6AP96M+4Uhy+dnj9BWfjdBgnY2SMGnGgHkgXZz1WjZLjxfD51ym40XJzBVf/1/JxPFxL/a4ljjnWCISr/r5+aX5qS3XGk2z9GVWJcIljiWbqMtZkvk7/LM5lg71EuubS3NikXU/gY1/5EvuWYvG18XXCdTSOj/ljfBpzoB7QuYpTiyvza9MiLTBqf1mQBVqbFn3Z6HnPTU03nuxnfOJDbBmb3L+Xc3Khm/WYT9zA4xOufD42tnaOMRtraYMba4hlLXHMkYuxdTK3xTqLx/gdhTBtrDlci9fph039BSraokCONvM4xrI28KP1nz7CDDvxXNe97/9+7hzV58hYrQqr+mDmusmVFlsWWj0xmUrIpS3UxI/P3LS4ecV4uRktRVxHv6cck+t4k2bs0nI4Jd5z9Z2rflvHs5Y4WuNSYw+BO/RkO9cZ5/qAH0Uz87DuaIvrsASyfOFctZvbon360K5xcc2Popz2sRg03vvD93XX0WGMzCNj1JAD9WCOFWdejE9xUOKSRRU7ceGNduNCHq8fOl6aUBO2jz766NWNixi5jtBmfyjmJbfnGzGxRGFA/Kf+4lbm3JLxGvJ9rH6HxvR4fS1xzIUt9cRPnj+KX2oKES0BnIVyPpetuCZjjy3a0LxxTec4P0iIAjuKa43ThwDN6339fVxYuY6mYybsvDd2R3CgHrSx4mRx1n8XygktjIxjQxCx2HKdPlrQadPTERZWBKQ2FtWHH354/4SFxVu2NV5/ZxpbOqaNBV6bbGssPsiW/MZ3bboh0D/7wy/7SNgxB+f4GOdgvLZoK/pEe/SB8dp0c8r+xhsQbYwfu+lk/GNf5iAOYc382IvnYMM8JYyij7SX/Je/zKMt+gA2spNxFm6KQVgJE/lEOzbwGxtq1z7OwTH5kq/ssZPnjj7Kzhr25MBx1K93a8CqFINqSjWp2ol1QA3EX2yk/tjUN9tQvca1gDU1iug8JtY+88X6jfVNDNhno2b55UitwaX4fK2O4+BprOqwMk7GqQEH6kEcK868OOIYi6kWYc45lpBhYY0LLOMllnObFumS4NKYOD6Dwrjsh2wxjgVc58yNTa7LZ90U5IdscV2CTXNyTf3j+ByT+uf5OOeGFv2JODG32phHvshe3NOWfVF/ruvGyZjSufqWMIo+xjljnIpFPgg/+Z/9kx366SYdj9XOHp/oQ3u8no/jHByLf/TDL8UY/c421nI+Vr9LinEtcSwJ82N8pUa1Ph8z3mPq783HYOU6Oi++x+TEY1adk/rgSsWJcMobQuzmzZt7YSNhBYmiQCqNk3DNwieLNBEyLubxmHaEVNyiyEJgya88jrFqx48ovGljnARaFGu0yc84L8fqz55N4lP2om9co119SjjJHm15LOP5Kfke8c++x7iyXyWMoo+0kzttMY8ZvziOOBQn/sKbuOFTa7Gt+Ygx4pE5JxzXtAfbNcSzljjWkIuxGKhvrVVj/dxWfw9uiZXraB7cW+bQthaVw3pnx4ozChcIIOGJYBIhYp9DQhERiQAassV1hJMWc2zrKUq2nc8ZI7+iT/JT7SXByjjNGYXjmJ+yqz3j2LCVfaNPtCtfNDaKQnxHoLJXu/Yl32OscQ7GxLh0LiHPOGEr+xqf54nn0dc8jnNiw07mSj7PGDA2xiLbpb3m0HzEqX7RRslX9VvLfqx+lxTjWuJYEuY1vqpuyQ+b1o+ase5Tfx9uhRU5amXLdi6fP2O+OMzrHR4rzihcRAKEDj86R1hpAUbc1LyKwFgt4lEoYUtPUOkTBSFtcV6ONS99OZetIb9p17zYUwyMlW2uxzb6cB7n0ri819goTukTcYkxxfHMr3k5BkfGxT4cx346H/KdeNVGX84VB36AtTAb85E+ygv9sBF9U9zyh3Pa4xPwPF+OQ/5Ff7lW+oljOVYM9I25L/lasrfka2P1u6S41hLHkjC3r+X1Zcm4uI7Wl9Ml83EDvtcTbmpxSqwyjk2/MMN1gJWoeq71+pMQhBEbYk2/IKl+7LPAxJaevuZ5+UUfvd8ru9hAeEXBpWRHUYYIYy5ttPFD3ygcNZZ9nEPzZDvR/4yDhDR7zRXt47eEcGk+jck4xDHZd2xqHDbjHMIIDLXJR/pyrE05ZkxJwMZ5mU92mE8bfmKHa/Il+qaYNZZ9xJN2/cQ5OJZN2hWX+Eg7W8RJdtawJzbHcY8ba8DCMTifx3JgLevBsfF7nGvnwhyoB/zU4szi5sKBNhEaiLUs/JYYxxSftKpytQAAIABJREFU584boj0++S6J+CnxbLXvqfXbC27E4c0IGIHjEbhx48Z+cC81bT/qdZixWixW9Y5TnackGpG6ZKGqJ8V6onoKFksaO7fYBiswF3fYby0HLfhyav228KGFjbXE0QIL26i/fxmr61i5jq7jYX4YjzNzoB7gqcUZXw1g7NB/9Z85wJM+ICDq4rbWVwzGctCD2B7zz211NQyP14DVWuJYQy4cQ13t9YiT62i5ueuRT/bpIJ8Odri6Qbs467Ey8YxVbxxYS/2uJY7e+GF/trVmuY62lW/X9+z5rnfAxVmPlYltrHrjwFrqdy1x9MYP+7OtNct1tK18u75nz3e9Ay7OeqwiseMv+PFKhv5qSuzj4+OwNW71uK2lftcSh7lbz11j1R4r11F7TM1TYzrCgXpw5ipO/WKifkFOwZzrr1K0fkeZ977jL/Tlc8VT2ud3xjMGpTG6ZmFfz21htub9XPXbGtO1xNEaF9tzvU/hgOvIfJnCF/c9mS/1BuYqTolt5o9/J3kJYhvf+ZvRCF+RtVbME+sWfyFTOHlfX5s1WM1VvzW+TemzljimxOy+bWvBeL6AMrq6JxkP88scODsH6icYK85aAVmTUAQqT3AR0/SXYOXLaeJfNFmC2C49XVY8EuCI6vjkWxhxbehJNmPv3LnjxTJ8gY1w875c02P1uyTM1hLHkjC3r+WaWjIurqP15XTJfNyA7/WEGyvOkthGVPJkVhviEPHIdYBlDF/tzRa/4htBrY3xfIOkng4zXsI0i+08X3wqzBjml219/Xg8l/hVLMypLc9569atfZPEcCkWYhx6Os04PaXnOPoq0smm+uk653HDN/nMBxI2XdP74WqPMcl37IKlsGA8dizm62tDuel5T1579q/Wt7XEURuv+62rDnvJp+vIvOqFixvxo55wY8UpMSchDXgIvijooqjMQpnxEoa5DZsS27Tp2wRzP+xLFDM/55qf64hJxsi3fK6++CIxTl/G0BeRq2P1VTtiWbZjLIyJfenPD9eyiFZb3Gs+sI92sl35HOOPfqhdc2JXOMofjdWHljhf9MnH9TXTE1Zj9duTn4d8WUsch+J0+zLrbCl5cx2ZX0vh6kr8rCdcqTgRb3lDmN68eXP/tFbiDrAQfIhmxFxpXHy6HcVrFNvYQRTS/tBDD+33CMcsHvN8jInikfnzuZ4uR5GqJDOen9I8Y7HkeWSPuWnT+aF9FsDZbsnneC0eay75MBRTxEdjvK+vl96wKtVvbz7W+LOWOGpidZ/l1lvvuXMdmVu9c3Rl/tUTbqw4EXMS0gAkcRgFZezDdYnbDCjib0xsyzavcqhfSTDG+SSWNVcWq9GfkjDV+Owb9uJY2dc++qBr7CV047VDx9FW9j+2yU6Mo9QuH0rYZfuy6X19vfSG1Vj99ubrmD9riWMsRrctt86WkjvXkTm2FK6uxM96wo0V55CYi09HEawS2Ag8vZqRgcyCNj/Zpj/z8SQ8vgrCXMwhe5xrfolltWUxGQWzbHON/tHX7Ftul33tsaXXY3StFI/axvbEoHiy/yX849yldmxhRx9ehrAb88lt9fUzN1Zj9Tu3b1PmX0scU2J23+XU2VJy5Toyp5bC1ZX4WU+4qcUpEcc4Np58x6ffCEAEszYJcYBFCLJxLf6CZASdPlFs5/mivaliW7/MKd8kREtiG5+GYikJ6yiCFWv0VTEyZ9xiH30AoJ1+JTEd5ym1S2wzX7SHTdr4kS/e19dJr1iR1159m+LXWuKYErP7Lr/+esuh68ic6o2TK/ennnCnFmdJ8K0c3L24QQxH4co5Pz3Hnp+c9+yrfaur4VPrtxec1xJHL3jaj7r6WRtOrqNt5n1tPF5QPPWEO7U4t/q0lKfG+ssf8WlzryTR/xD0/oGgV/x69evU+u0lrrXE0Que9qP+HrgmrFxH28z7mji8sFjqCTe1OHk6Grf4ysfCQOr6KXQLLBHWcYuvrLSwbxv1dXYurMjvuWxf0u5a4rgkZp5r/vrrLQeuI3OiN06u3J96wrk467FaOWlWIdq2lqO11O9a4tga/xxvX/cP11Ff+XB9rD4f9QG6OOuxcuEYq944sJb6XUscvfHD/mxrzXIdbSvfru/Z813vgIuzHqspxOYVDv0CJXu/K30enKfkZI1911K/xOHNCBiB4xG4cePGfvAa1znH5PtnpxyoTwzVOWcQ+R1wfeNkS58Qulnsxj/3F3/ZkXlPFcfRNvby+VhsUaSP9XNbPcfXjNXc9dsK27XE0QoP23F9H8MB15F5cwxvPOZo3tQPnLM4EdrnENeZOIfEdu5/6nnpT+wh4Ll+qm2Pr+f2FrCas35b4ruWOFpiYluu9akccB2ZM1M54/4ncaZ+8Fhxtvwb2vzpOQQnT3lJLvuhb5s8Jfl5HmxdWmyXnoxHAV7y8ZiY+ZIecnTMWI+pr5GesRqr3579zr6tJY4cl8/XUWdLyaPryHxbCldX4mc94caKsyS29feaGcemb2XkOuAxRt8gqafWEtbPjXjuGyRf//rX3/eV5xl8RKu2+CcGEc/MyzVtiNnSPPh1SGwzTn8zGx+iWM7xxj+fx5xxYx71z0+xI5bCKPdhbmwwv45LcWoOzR2xyRj6vL4WlogVHFii39nntcSR4/L5uuuvt/y6jsy33ji5cn/qCTdWnFEgCrAoBrmGMJQARbRyzJ42xiNiOc9tCE2Nk+2xfRTMHEeBGW3lebBJ/9ImG4wZEttReGOLc34QvHxNPTFGv4eul7CM43Qc8R2Lc2ge2fG+vgaWjNVY/S4prrXEsSTM7ev61gjX0fpy6jrtOqf1zpWKE/GaN4TpzZs39wI5PpGNIrI0Lj7dHhLiQ2RC1MaNc/pGQcp5FNjxWHbpz4/OS2NKYjuLcMbFeLHJJr9oHxLBcVz0Ix/H2OIx/WJsQ/Nkez6vr4UlYgX/luh39nktceS4fL7u+ustv64j8603Tq7cn3rCjRVnFogIPATzmNgeelodhSLgc46Aj7ZiUrLQjOcc86P+0XY8Vnvur/kl/hlzjNiWfX3IkE+I7xxXxlJj8x4bEu/Z7xibxXY9xzPGazofq98lxbmWOJaEuX1d3xriOlpfTl2nXee03rmx4iwJRISgxCAkQBBKYCMGhwR0FIoiD2P15FvXtGcO2jmXyNe8YyJ0aB7Zkv3Yj+OS2KZv9EPn8kO22COudT2Pye1xXD7GT9kZi9Niu57jGeM1nY/V75LiXEscS8Lcvq5vDXEdrS+nrtOuc1rv3NTilPBlHBvvLfPDdUiBQNcvSNIuIU4bIjJfQ1DGTf0RwAh3Nuzdvn27SoSW5smilT61YjvHK//y9fihIQpv5pJP+MGxMMpPv2mjT43YVl/wASfi4Zp/toUB+V9DztcSxxpy4RiWu4a4jpabO9fdInNX7/SpxVl6+r100pSeTE+JKT8pj8J+ih33refxVrE6tX57wW0tcfSCp/3Y5trhOtpm3l3vs+W9fuJTixNhqiexa0k48ZSeOk+JLz6hPlW8T5nXfeu5vwasTq3fXjBYSxy94Gk/trUOKN+uo23mXfn3/uL5r59wanEiQuO2plcYFNuaYnLx1dfCErGaWr+9xriWOHrF136tex1Qfl1H28iz8u397Pmud8DFWY+ViW2seuPAWup3LXH0xg/7s601y3W0rXy7vmfPd70DLs56rExsY9UbB9ZSv2uJozd+2J9trVmuo23l2/U9e77rHXBx1mNlYhur3jiwlvpdSxy98cP+bGvNch1tK9+u79nzXe+Ai7MeKxPbWPXGgbXU71ri6I0f9mdba5braFv5dn3Pnu96B1yc9ViZ2MaqNw6spX7XEkdv/LA/21qzXEfbyrfre/Z81zvg4qzHysQ2Vr1xYC31u5Y4euOH/dnWmuU62la+Xd+z57veARdnPVYmtrHqjQNrqd+1xNEbP+zPttYs19G28u36nj3f9Q64OOuxMrGNVW8cWEv9riWO3vhhf7a1ZrmOtpVv1/fs+a53wMVZj5WJbax648Ba6vcScTz44IO7J598csf+mDzyrbD8HDOWb5HV9swzz+weeeSRo+w88MADu7t37xbH18ZHP764K8fS4ptzIzbM89RTT+191ReGCYPWXxx2Sm6izxzX4njnzp1iHrI9zpV/fZtwxr405phrl6ijY/zyGN87V8qB+sS6OOuxWilZjrrpG4s+eLOW+r1EHAhchCqC9Rj+HitGEVaI/GPnjb6OCcHa+OiH4I8+jdmN89ceEyv2EdmMaSmGSz4cm5uSrVocia1GNNMvYt3S1+z/Jeooz+nzPu4FzsMseaiflOL0ZgSMwHIRWMMiC/pDcSAEESinilWEEXaG5hm7jg96SjvWr9TWUlxl4Rbno60mPvrxoSM+Ia8VmLVPc7MvLTGIMXN8Sm6yLc6z76U+XAMz8Bhq1/X4QaOFr2P1MFZH8sf7en1krIzVAQ4YoAMAHVwgPd4cMgcux4ExkTAkLhBF2vRagp6ocp1rt27dunr6GAVf7EdfBBHz8ASSPbmP51mMxrlv3769F7n054d5uMZGP2zHJ5viVRRhXIvn0b/42slQH2JF+NGOrTgeP3Q9zhNtZYFJmzaOiYs5tEnUx36KkbmjkM/nil++kCPZxl7ElmP6ZVwjJjk30SeONV+8zpzEgG8Rqyk4xnnxk7H4qfmiXXBjvjhG8QtT4cf1OBa74nHEhnHCR3NyTcfeX279MtabxXqzgXuheXahduEbg6VxoCQSsrCgj0QWbTqOsSJoJAQRNvShL+JFAlBCRv00PgshxkkAcaz+9EMAsWcs12M//IwiT324jh3NxzidyyfOdaz5sKVjjcl9ok9qkw+5TThwnWP601f92Us40ocn+ohIfFOcxEA/ncc5o136cU4etMm2xuhc/RQr9nXM3GzRx9im4zHfNY/mZUw8lq/0wxe1aU6uqU19I37Cgjb9YEN4c404oq8ak+eij/oJF8Zig+vySfNoD0Y69v5eHoyFsTgTBwzsmYD1QhZuJMbYddaKA2MiQU81ESSaD8Eh8aFriBIJQ64xDjHDPrZxLJGksewRMBI4OpeoiQInHud+2Ua0z7wSa/gUX0sZ8jWKsDgmxsMceXyMLwq+2E/XX/nKV+5xAk/NJ2yJR4KQY+GhsfihGNXO2Igj57KhvvI5YpD7yR59Oc42da58DPn+8MMPX8Wn+RnDfMfiiJ0cp2zHfbYffY0inDGKN48p5SziHucbq6PYz8deu82BJhxoYuRqEXVSjKc5YA6ckwNjIgGxgUhBTOFDSehxPYufKN7yMfZyPBJgmgOByLgo4vLcuU1jsu1sE7EUBXH2Dzy00cb4KMK4FmPI42NbHJfnReDx+gl+gzM/fCDQFu1EfKIAzLFJNAqDLJR1PfrMtTgu4kpbnFvn9I/9hnzPvnIukX8sjtlfzks/0X72VZgzLrbFMbRFnHIseU7ylq/5vJwb42JcGnDAIDYA0YvWwA3E2Lq+WnNgikiIwiT6EUUJopJXFxBk9IlCLvbT+GwTcYfoRNxEgVPbT3bjHp/0ZDv6kH2lLYpc2YjXD41HyOErY7ElHKIN2jS3+sdYNS/7fJ1zCVbaoz8Ra9qyUJZd+sU4Y784H8fgxhyaq5SbOEZzsI++Kn+KN/otLCJW6oediGO0iQ35E+ctjcEeY+N4+kU/4nHJp4hZnm9KHeWxPve6bg5M5sDkARaWzy54JpoxMAfm4cBUkSARwji9u42AQfSwIWr4JUWECzmNQk7n+47P/iPxgsjSFn+BjrniU+jafhJ2ssle/oz5mv2T4GNeCcEp4xUfdqMNzuVj7IOP2oSt+nFdPsR+UWzGOeI42dT4mBPikRDFr4i5jskBm3zK/TiPPsV+zKWx5FZ/ReRYHJlHmHEc48cPfhQ77Yd8jePHfBLvY2yajz1bPPfxPOuZcd8M7psJ1AvL8wu7i9ucXzIHLBLWw18EocRsC05GYdvC3qk28geDIXu1/YbGH3PddbSeOjom/x5z8fxffEKLXotec8AcOJoDFgnrWbN5ostTX8Rmi5t/fALewt4pNvTUWU+rx2zRR/8rMdavZZvraD111JIXtnU2XpzNcJPF04l3fswBcyBywCLBfIh80DHCPf/VDrX1utfrI0OvepzTb9eR6+ic/LLt+/h13wWLZD91NAfMgW45YJHgNds38tM54Do6HUPz0BhO4IDBmgBWtwLEMZjHW+GARYK5vhWunzNO15Hr6Jz8su37+HXfBQtKP9U0B8yBbjlgkeA12zfy0zngOjodQ/PQGE7ggMGaAFa3AsQxmMdb4YBFgrm+Fa6fM07XkevonPyy7fv4dd8FC0o/1TQHzIFuOWCR4DXbN/LTOeA6Oh1D89AYTuCAwZoAVrcCxDGYx1vhgEWCub4Vrp8zTteR6+ic/LLt+/h13wULSj/VNAfMgW45YJHgNds38tM54Do6HUPz0BhO4IDBmgBWtwLEMZjHW+GARYK5vhWunzNO15Hr6Jz8su37+HXfBQtKP9U0B8yBbjlgkeA12zfy0zngOjodQ/PQGE7ggMGaAFa3AsQxmMdb4YBFgrm+Fa6fM07XkevonPyy7fv4dd8FC0o/1TQHzIFuOYBI8LY8BD7ykY8sz+mVe2xBZP1jDlyMAxebqNubt8lmDpgD5oA5cD4OPPPMM7v3v//9u49+9KO+D/iDvDlgDmyRA+dbYH3zMrbmgDlgDmybAx/4wAd2H/7wh3ef8RmfsfvkJz+5e/zxx7d4o3XMFpjmwLY5sO0bgYWA828OmAPmwHk48JKXvGQvsF/60pfuhcZv//Zv73jKbbzPg7dxNa7mQLcc6NYxL8jb/hTo/Dv/5sDCOYCwftvb3nYtj7xK8u53v/vaNQsE34fNAXNg5RxwgleeYN/UFi5YzE+vUUvkwHvf+97dxz72sd3/+3//79oa9KpXvWp/fYkx2WfXojlgDhzJAQN3JHDXbiC2YR6ZA+aAOfAcB174whfuPvGJT+xe8YpXFNfJD33oQ/tfmDRerhlzwBzYCAec6I0kunjTc+zmvzlgDrTmAK+K3L17d3DN+f7v//7dxz/+8cH21v7YnjluDpgDM3PACZg5Ab7h+DUPc8AcWA0HeEebvzryohe9aDSm//iP/9jxt7e9/voebA6YAxvggJO8gST7hmYxZw6YAxfhAO9pv+51rzs414tf/OK9KP+SL/mSg329Rvs+bQ6YAwvngBO48AT6RmURZQ6YA11wgL8+8vTTT1f78q53vcu/LGnuVvPF92rrtQVzwMlbcPK8SPlGZQ6YA91w4JivZGfMZ3/2Z3cTg+8H1gTmgDlwBg4Y1DOA6huHBZA5YA6YA4EDu2c3r7W+35oD5sBGOeDEbzTxvvEFIWAOeB0wB87LAYvt8+Jr/hpfc6BrDnTtnAWhBaE5YA6YAyvggMW277UWg+bAhjng5G84+RYxKxAx5q/XsCVwwGLbPF0CT+2jeXomDhjYMwFrIWshaw6YA+bA8xyw2Pa91vdac2DDHHDyN5x8CwGLQXPAHLgIByy2fa/1vdYc2DAHnPwNJ/8iN1nj6xozB8wBi21zwOuAObBhDjj5G06+xbafapoD5sBFOGCx7Xut77XmwIY54ORvOPkXuckaX9eYOWAOWGybA14HzIENc8DJ33DyLbb9VNMcMAcuwgGLbd9rfa81BzbMASd/w8m/yE3W+LrGzAFzwGLbHPA6YA5smANO/oaTb7Htp5rmgDlwEQ5YbPte63utObBhDjj5G07+RW6yxtc1Zg6YAxbb5oDXAXNgwxxw8jecfIttP9U0B8yBi3DAYtv3Wt9rzYENc8DJ33DyL3KTNb6uMXPAHLDYNge8DpgDG+aAk7/h5Fts+6mmOWAOXIQDFtu+1/peaw5smANO/oaTf5GbrPF1jZkD5oDFtjngdcAc2DAHnPwNJ99i2081zQFz4CIcsNj2vdb3WnNgwxxw8jec/IvcZI2va8wcMAcsts0BrwPmwIY54ORvOPkW236qaQ6YAxfhgMW277W+15oDG+aAk7/h5F/kJmt8XWPmgDlgsW0OeB0wBzbMASd/w8m32PZTTXPAHLgIByy2fa/1vdYc2DAHnPwNJ/8iN1nj6xozB8wBi21zwOuAObBhDjj5G06+xbafapoD5sBFOGCx7Xut77XmwIY54ORvOPkXuckaX9eYOWAOWGybA14HzIENc8DJ33DyLbb9VNMcMAcuwgGLbd9rfa81BzbMASd/w8m/yE3W+LrGzAFzwGLbHPA6YA5smANO/oaTb7Htp5rmgDlwEQ5YbPte63utObBhDjj5G07+RW6yrfB905vexP3amxEwAkbACBgBIzCCAPfLVvde22mik5sYcVL9dOzsHGBdcdG7Xs2BZXLA9bvMvLnelpk311t3eevOIQsqC/ciB7x4uFZ9418uB1y/y82d6255uXO9dZez7hwqCi0Xu/PkxcMc8DqwXA64fpebO9fd8nLneusuZ905ZLHtJ9tFDnjxcK36pr9cDrh+l5s7193ycud66y5n3TlUFFoudufJi4c54HVguRxw/S43d6675eXO9dZdzrpzyGLbT7aLHPDi4Vr1TX+5HHD9Ljd3rrvl5c711l3OunOoKLRc7M6TFw9zwOvAcjng+l1u7lx3y8ud6627nHXnkMW2n2wXOeDFw7Xqm/5yOeD6XW7uXHfLy53rrbucdedQUWi52J0nLx7mgNeB5XLA9bvc3Lnulpc711t3OevOIYttP9kucsCLh2vVN/3lcsD1u9zcue6WlzvXW3c5686hotBysTtPXjzMAa8Dy+WA63e5uXPdLS93rrfuctadQxbbfrJd5IAXD9eqb/rL5YDrd7m5c90tL3eut+5y1p1DRaHlYneevHiYA14HlssB1+9yc+e6W17uXG/d5aw7hyy2/WS7yAEvHq5V3/SXywHX73Jz57pbXu5cb93lrDuHikLLxe48efEwB7wOLJcDrt/l5s51t7zcud66y1l3Dlls+8l2kQNePFyrvukvlwOu3+XmznW3vNy53rrLWXcOFYWWi9158uJhDngdWC4HXL/LzZ3rbnm5c711l7PuHLLY9pPtIge8eLhWfdNfLgdcv8vNnetueblzvXWXs+4cKgotF7vz5MXDHPA6sFwOuH6XmzvX3fJy53rrLmfdOWSx7SfbRQ548XCt+qa/XA64fpebO9fd8nLneusuZ905VBRaLnbnyYuHOeB1YLkccP0uN3euu+XlzvXWXc66c8hi20+2ixzw4uFa9U1/uRxw/S43d6675eXO9dZdzrpzqCi0XOzOkxcPc8DrwHI54Ppdbu5cd8vLneutu5x155DFtp9sFzngxcO16pv+cjng+l1u7lx3y8ud6627nHXnUFFoudidJy8e5oDXgeVywPW73Ny57paXO9dbdznrziGLbT/ZLnLAi4dr1Tf95XLA9bvc3Lnulpc711t3OevOoaLQcrE7T148zAGvA8vlgOt3ublz3S0vd6637nLWnUMW236yXeSAFw/Xqm/6y+WA63e5uXPdLS93rrfuctadQ0Wh5WJ3nrx4mANeB5bLAdfvcnPnulte7lxv3eWsO4cstv1ku8gBLx6uVd/0l8sB1+9yc+e6W17uXG/d5aw7h4pCy8XuPHnxMAe8DiyXA67f5ebOdbe83LneustZdw5ZbPvJdpEDXjxcq77pL5cDrt/l5s51t7zcud66y1l3DhWFlovdefLiYQ54HVguB1y/y82d6255uXO9dZez7hyy2PaT7SIHvHi4Vn3TXy4HXL/LzZ3rbnm5c711l7PuHCoKLRe78+TFwxzwOrBcDrh+l5s7193ycud66y5n3Tlkse0n20UOePFwrfqmv1wOuH6XmzvX3fJy53rrLmfdOVQUWi5258mLhzngdWC5HHD9Ljd3rrvl5c711l3OunPIYttPtosc8OLhWvVNf7kccP0uN3euu+XlzvXWXc66c6gotFzszpMXD3PA68ByOeD6XW7uXHfLy53rrbucdefQ2cU2JPRmBIzA5RBoebO+nNeeyQgYARBw/ZoHRmAYgcr62KbYrgSn6SLjObfHNef8BfsVqiUOGGxpz7Zcl+bAMAda11tre87dcO6MzfmxmcDn8zvTW8IngOObut8fNwdO5EDremttr7f1yf5s757Uc85b11trez1jZ9/WX8sT+Lx+MDLhJ4BjoXWi0MrY+9z1dioHXL/b49CpnPH44znTut5a23Nuj8+tsTsduwl8Pn2ypSVsAjgW2xbb5sCJHGhdb63tLW39sr/bu2fNmfPW9dba3pzYeG7X4gQ+bw+sCeBYaJ0otLwYba++cs5b11tre9lfn5uz5sA9DrSut9b2nKt7uTIWl8diAp8v79zchJgAjsW2xbY5cCIHWtdba3tzr0eef3v3oCXlvHW9tba3JCzt6/pqfQKf1xf8IUJPAMdC60ShdSgXbl9//bWut9b2zMH1c9A5Pj7HreuttT3n9vjcGrvTsZvA59MnW1rCJoBjsT0gth9//HFgvNo++MEP7h588MEu8XrkkUd2Tz31VLV/r3nNa3Y9x7P1eoN0S8OgN3/XWL/Ubd6Iszfsl+ZP63prbW8JeK6x3oT7kmKTzy33E/hssd0S+C3YorjWLEbv3Lmzu3v37o6b9xbyee4YJyxGVXi3tnfu+Huzv9b6pV6ffPLJ3QMPPLDnER/+Wadcx6fd41vXW2t7vdVX9met9Uaca44t53HofAKfTyvEIQd6vj4BnKqbf8+xtvaNp8TcwNhPtY2IPWbc1HlO6c8Nmhs2N2gEt27cp9jc+tjW9dba3pbys+b6zWKbvD7xxBMW2wP/O1nL+9b11tpebRxz9FtzvZ0S2xy5ONecE/hssX2uJKzRbumGFuOkAJ955hn4t9/45ItgRcBqi0/FuRlq41i29FRKbbdv394h1tUex0V7zI9Ipj8b83MtvkYyNBbb9JfP2GGs5vT+uLWCPLTErrX6+1tWAAAgAElEQVS9lr71bqtl/ea6pm4UP/Nooz6pXa6pfagGT6nfHBu2jn0wID+99zfAnsKBzMlsC472fr+krrXhq+6Jh2LLsa71HGwqYzvuBlppvNaJi/abAM5F/VoCphReFMVjPuspMXtuzFm8YiveoLGr83ism7rmzT5wrv8+1uIlO/jHtSi2o8/0U9/sY2yLY3w8bc1oXW+t7W0pn3BadXQo7kP1ix0JaNUo54yj3nRTVk2qb/aB8xb1i/24xQ/hh2J1+3BNt6631vZ6zl3m+pivh+oNW/zIRrxHxmPVouo8+8D5sfVGjQ3ZlV9b20/g83CRrRW0CeBcEXutWEyNi2JToZbG6sYKxmz6JJyFrBaE53rd+5dCzjdr5lGRaxznmj8uUiVhna8xR9y0eGTf6TMWq+b3fnwNAceWGLW219K33m21ql9qDjGbN27kpTmoMa6fs37zvPIxCpTe89Ojf63rrbW9HjGTT5mTuq59vuf0eL+kfuKme+Kh2BTj2vcT+Dx+o1wjUBPAaSoS1oAli8PQf81mkRzPh8Q2BZtxiePURj9u2DU36/yudRTbLBwS19iO5xzzozmzz7ru/bQ1o3W9tba3pXy2qt9SjQrH0k14itg+tn5L88b6ln/eu34vxYFW9Va67ymGUi22ul/mmornY7HJty3sJ9yPphXeGsCbAM6V8FpD3K1i4MZZ+i/aKGqZi8Ic+qROOzdCfUqOvmlhicKXOSWS8w002sGHsZs1NmRX83CttGDJR80bffRx/brRut5a29taLuFzi/rFTqk28k2Y2mI+1oNSTbWoX+xGIcC56lv1vrU8t4q3db21ttcqznPZaVVvsU6iryWex9pkXKzTaOfQ/TKPxU68Zw/FFv1b+/EEPtffNNcC2gRwLLafvWmV8k6RxU3FTHFqQ/TyQ0FjQ23xRp/t6IasG7Rs0U9zYCuOi/YOLR7RLh8E+EVKbOUbtWLG3tD73urjfZkjwoUc6rjFvrW9Fj4tzUasH/BUbalGuXaofnWTpy+bPliDBfWkjfrkBq3apj3O36J+85yaW3EtLT89+QuWLf1pba+lb+eyFflO/OLllHrDt2xHNRXva7KvOfK4KfWWa5z7ZX6YlX2K854Lz57sTuDz+I2yp6Ba+TIBnKaLTCv/t2iHRWVrRbyWPLeut9b21oJzz3FQuxIGPftp3+7XA63rrbU95+z+nPl+eT8m5+LJBD5fzqlzBTvV7gRwLLaf/TQ9Fd/W/fXpmqcArW3b3vnz27reWtszB87LAf53iKdp+h8u431evFvj27reWttrHe/S7fl+edn6msDnyzrWA5EngGNxN5PYjv+9Rr7ie2I9cMg+1K8breuttT3nsj6XNVjpZk+etPmDcluMa/LQqg85bGULO63ttfRtqbZ8v5yvvibweT4n5yL2BHCaLjJzxet5t8fxnnLeut5a2+sJK/viWu2NA63rrbW93vCyP9uq4Ql83hYwFMIEcCy2Z3qy7QVrPXXZut5a2zPX1sM157J9LlvXW2t7znn7nBvTekwn8Lne6FoSADjejIAROD8CN27c2E/Scu04v9eewQgYARBw/ZoHRmAYgYn1sU2x3fLmb1vb45BzXp9zlqqWeLW219I326rnhbFaBlat6621PfNoGTxaa54m8Hl7iZoATlORsFayOa7t1dCUnLeut9b2psTivub61jjQut5a29taPhxvX2vQBD735fgliDQBHIttv7NtDpzIgdb11treJdYcz7G9+8xact663lrbWwvOjmOZa8QEPi8zwFOIOQEcC60ThdYpefLYddRm63prbc88WwfPnMfz5LF1vbW257yfJ+/GtQ7XCXyuM7gm4CeAY7FtsW0OnMiB1vXW2t6a1jbHsr372blz3rreWts7d/y275oa48AEPm8PyAngWGidKLTGSOq2bdRe63prbc883AYPnefj8ty63g7Z05ci8ZXjMWd8A+lTTz21e/DBB/fX1S9/YRLt9Bv6xlLsxi1/YVr+gphnnnlm0Bb+MR/fkBq3bFO+xj4xPtnIsRDD3bt3d4wXFof8V7+8P4RL7n/qeY454yicn3jiiavYmFNY5P6n+nOu8eS00vZxBVhpvNaJi/abAM5F/VoypvZ9e3VUm/PW9dbaXm0c7meOb5EDreutxh5CLIuwfE1ClH5RjI6JSmwgjOmjXDI+iuM8D+exXeO0L82HTfkv8YgdjcF3xKQEt/pkgakYFV+N/5pj7j0xgRv77EvElOOMFbgwbuxDU7Y513kNn5/3bXsL6ARw7iPJXAn1vNvj6Vpy3rreWttbC86Ow2vEOTjQut5q7CEyS0+xJU6JE5EmoRavD4m0oet6Aisbsikssy+6rn3JLrYkILM9jaOPRDw2OL5z587VNfpFsV2ahz7Zf+wyp+Y5Zs+8+HLMWI1RTOx1jT3+8rSeOTiPcUXcaBvCLtqb+7iGz8/7uL0FagI410gyd1I9//a4uoact6631vbWgLFj8NpwLg60rrcae1lAZsEbhVwWaFG8RUyyjdiGqJNAzQKPc4niOEbHeT75LnuIbh1rDPsYg44feuih/VzERB981msktf4zX8nf6KfmQ1Br0xjmjlv2PbfTN/9vQfZ9KG6uCy/sMlecj2vyK9ro6Zj4K/3Z3iI1AZxaEN3v2aKpJJz7bQyr1vXW2p5569o1B4Y50Lreau0huoaeDiPC1CbhyJ48RlEZ8zom3PJc+KjtkNhjvvzONnMxdxSS0ZfsZ4whiuootmv9z/PoPOIinyVss58RX42fusd3XovRpldkYnyySS41p3yiLcavvr3tia/Sp+EiqzRQO1E3/SaA043Pa82F41p//bWut9b2zMH1c9A5Pj7HreutZA+hpU1iS6IsP+0ll4izvGGDtigqY95lj/Z4nWPm1LzsJeTjcR6j89J8jJdI51i2NYY94+jDPh7Txhh+otis9T/OEY+jn/FYffBRfkr4qq3FXljmWLFNrMwZfeB6jL+FD+ewAQ8r7R5fhJUT1DpysX4TwLmYT0vF0n5vr36m5rx1vbW2NzUe9zfnt8SB1vVWa09PW2/fvn3t/e2SWIvisCQkydfQdc0jsS5RqDE8tVZbKe8lu1EYR3txPDYlyHNMsnnr1q2r10h0DdvRTvY/tsXjOD7PR78odCOe0QbHtOWt9BpJaRzx3rx589ovPuK/3uHOWI35ke3PdV7L52f9297COQGca6TeIlaOeXv10Trnreuttb3W8dqea2ZNHGhdb1PsIb6efvrpqyfN4JoFGdeykBz6KxaMzcKQp6oSvSX7URSX8hrnVjvzyCbtzMk1tSOY818joT991UeiVna4XuO/xud99JPjPB+25eM5RC44y348jh9M4jH+x345nl7OJ/B5ewvjBHCuiN9LYu3H9vi69Jy3rrfW9paOr/33mnBODrSutyn2sigde4orYSZxyzzaomCViC21gSOCEFvCVHNKKOq69qX5sqCXDc3JHj+ijSx+NSb6Tv9D/uN7HsO4KWI7xjQUt3wf2o/5Ge1nLJhPWymOofnmuo6vlXNvb6GaAE4tiO73bDFXEs79NoZV63prbc+8de2aA8McaF1vre05d8O5Mzbnx2YCn8/vTG8JnwCOheHGhGFvXF2DP63rrbW9NWDsGLZ3H7tUzlvXW8nejRs3uOzNCBQRgB+X4vvUeXC4csz2FqkJ4NSC6H4W5ebAAAda11tre5ULpfM7kF/jt+57aOt6a23P/Fs3/3rP7wQ+by9RE8DxDdY3WHPgRA60rrfW9npfzO3f9u5RPeW8db21ttcTVvZle7U6gc8GxwWyPQ4455fL+YTFqOqDTWt75sLluGCsl4d163prbc+cWh6n1pSzCXzeXqIAx5sRMALnR0DvYrZcXM/vtWcwAkYABFy/5oERGEZgYn1sU2y3vPnb1vY45JzX55ylqiVere219M226nlhrJaBVet6a23PPFoGj9aapwl83l6iJoDTVCSslWyOa3s1NCXnreuttb0psbivub41DrSut9b2tpYPx9vXGjSBz305fgkiTQDHYvvEX467RD49R9813LreWtszf/rmj/Mzb35a11tre+bHvPzYOv4T+Ly9RE0Ax2LbYtscOJEDreuttb2t3ywc//bugVNy3rreWtubEov7muutOTCBz9sDfwI4mxda+spYvno1HrcmrO2ttw5b11tre2vnXvz6aX2l9dpjdnzt1pPW9dba3ppzHe+58XjNMS8ttgl8bleUSwFpAjhXYltEZ6w2bly9xhxvsDU+IqY/+MEP7h588MFrMXE9xvnII4/s7t69uxfeNXbdZ3v1lXNOveRrp5wfY2+t9Ut95o3aF77U85NPPnlV1/lc/bx3nQ5x4Jh6G7LF9WPsrbV+wWMsNt9/+6/LCXzuP5ixwj2mbQI4+5uWiiGKzmPm7XnMnTt39iKa4o5+EnO8BhaIbUR37Ofj7dVRbc6n1tshu1Ptrbl+qU3ENDGCG2KaD82qWfZ53co1fQhvt2+7tqfW2yG+TLW35vo9FFuuVfr7/ttXPU7gc1+OHyrUFu1j4JSe3PKkKN7QpviAiO1dmOppFzfm+NSa60899dR9/oNHfHo2BQ/3db2dygHX7z0OZbENtvEGzXGu1ZIAPzUnHn8vJ2vDYqzejol1zN7W7r9j2sL332XU1BifU30sI6Dk9ElPVcfAKRV76YYV/WHMM888g9n9RgHpE6uu6RWNfD3eCLkJaqM/Qp1rmgs/tMkebfL59u3b+2Zs8kP/Q2NpV//8qRm7iG2KXnbY+2a9vZqJ+Z96DCmnjhnrP2ZPtQCXZWPN9UstxgcBxM/awF5rTVxDwKSEkbDy3rWdOTBWb7lvzfmYvRI311y/Y7GBhe+//dfjGJ9TPfQfTHL46iZ67PUxcHKxD92whubWU2L2WbwyhuLSzS/azp9i8QMBr75ZPHOum6z6ck1+5f66zp429c0+xraMhWzgE3Ho3Pvt1dCUnI/V2xQ76jtmL3M21pjGj+2XVr/UYtzih/Bc24o7Y6Tr3ruOSxwYq7dS/0PXxuxlbq65fg/FlrEQrr7/9lWnY3xWzp7f9+V4cu4sgq4ETr5p0Uc3rrFPn/hLUcQn2xxzLd/suJFjM28IXOaXeBYGEualooyigLnyJ2BsRkHMcdzUln2nj/ygLb5WIr9c7NurGeX+mD2cOmbc0JiSva3Wb143tMZQ/3n9EZ5Dda12713fkQOleovtU49L9rZav9yHqdUShkN16vtvX/VZ4nMpn89e68vxS/gzBk6J4BSDBGj2j5tbfK85nuebXWzLdvJNk3YKkes1YjuL4ii24zF24znH/Mif6DP+Ejd7tbN3sW+vZmL+px6P1dtUW/Qfs7e1+i2tG7G+tYZEnEsYxXYfu74jB8bqLfarPR6zV+ImfF7z/XcsNt9/+6/FMT6nmug/mOTwNeF3TNsYOKViR2zyRFpPg+Oc9I9Plbn5DT3ZZhw2huwwB/bopzmxx3m8gepcRVryOfZnPs4ZJ+HONeaIHxRol+1D7bKnMd5vr45qcz5Wb7U2Yr8xe6VaUC0N1d1S6xdMsthWfas+Y+0LQ8aUsFC7967lyIGxeov9ao/H7G2tfsfWprH7s+q7FnP3O19Nj/E54X4+J9JEeyHXw7UJ4Fz5rKJgrLYohHWNJ8z8SDRTFGx6JUU3Q/WXMAcX7GmjP2Jac9DODVKb7HG9tEAxr26o0Xfm4xcpacO2BHvMC/YkQNRP7fI/+qU277dXSzU5h7M1/Wr7HGMv1oBqSBxWjXJ9SfULXsSQN9W92uM51zj3zdq1es56G7MNX8faS21rrV9iHYvN99/+63QCn/sPplR8p1ybAM7kReEUv/LYXGi5/RLnWZCXhP0l/PAcy63T1vXW2t65uNVD/XIjj/97xXnpv6bPhYHtLrdulbvW9dbanvxsve+hfn3/7b9+JvC5/2BaF9EEcGYT24ja+FpJawxq7cUn2fG4drz7ba++cs5b11tre9nfFue91C+xxP/lQkD4qbZrcgrHW9dba3tTYqnt20v9xntuPK6Nw/3OX+sT+Hx+Z3pL+ARwLia2VUj4ps03xe1xs7daaeEPfG5hRzZa25PdU/auX9fqKfzpeWzremttrwV2rl/X77E8msDn7YE8AZymIuHYZHrc9ji6ppy3rrfW9taEtWPxWtGaA63rrbW91vHanmtoCgcm8Hl7wE4Ax2L72f+GnkI89zVemQOt6621veyvz81hc+AeB1rXW2t7ztW9XBmLy2Mxgc+Xd25uQkwAx0LTYtscOJEDreuttb251yPPv7170JJy3rreWttbEpb2dX21PoHP6wv+EKEngGOhdaLQOpQLt6+//lrXW2t75uD6OegcH5/j1vXW2p5ze3xujd3p2E3g8+mTLS1hE8Cx2LbYNgdO5EDremttb2nrl/3d3j1rzpy3rrfW9ubExnO7FifweXtgTQDHQutEoeXFaHv1lXPeut5a28v++tycNQfucaB1vbW251zdy5WxuDwWE/h8eefmJsQEcCy2LbbNgRM50LreWtubez3y/Nu7By0p563rrbW9JWFpX9dX6xP4vL7gDxF6AjgWWicKrUO5cPv66691vbW2Zw6un4PO8fE5bl1vre05t8fn1tidjt0EPp8+2dISNgEci22LbXPgRA60rrfW9pa2ftnf7d2z5sx563prbW9ObDy3a3ECn7cH1gRwLLROFFpejLZXXznnreuttb3sr8/NWXPgHgda11tre87VvVwZi8tjMYHPl3dubkJMAMdi22LbHDiRA63rrbW9udcjz7+9e9CSct663lrbWxKW9nV9tT6Bz+sL/hChJ4BjoXWi0DqUC7evv/5a11tre+bg+jnoHB+f49b11tqec3t8bo3d6dhN4PPpky0tYRPAsdi22DYHTuRA63prbW9p65f93d49a86ct6631vbmxMZzuxYn8Hl7YE0Ax0LrRKHlxWh79ZVz3rreWtvL/vrcnDUH7nGgdb21tudc3cuVsbg8FhP4fHnn5ibEBHAsti22zYETOdC63lrbm3s98vzbuwctKeet6621vSVhaV/XV+sT+Ly+4A8RegI4FlonCq1DuXD7+uuvdb21tmcOrp+DzvHxOW5db63tObfH59bYnY7dBD6fPtnSEjYBHItti21z4EQOtK631vaWtn7Z3+3ds+bMeet6a21vTmw8t2txAp+3B9YEcCy0ThRaPS9GX/zFX7z7x3/8x93f//3f7z7v8z5vU7n+6Z/+6d2HP/zhHftz56h1vbW2d+74bf889xjXr+vXtXWe2roErmup3wn3o+Um61hCTADnJCHyxBNP7D74wQ/uHnzwwaPtMBYb2Do23u/8zu/cve9979t98pOf3H384x/f/cu//MvuZS972dH28OOQX/j7zDPP7B555JGD8zz++OOkZPe///u/u+/5nu+56s/1WhvHYPOqV71q93//93+7H/uxH9vPia/MF7cnn3xy98ADD1z5dMw8eYzmIb7cdsr5a17zmr3rNXZZ6P7pn/5p/8PxoXn5MPKnf/qne/7Aoz/5kz/Zc7KG3zh1yP6U9tb2huZ2/bp+S9xw/Z6mGVy/vv9SV2u5/07g82mFU1qMer82AZyTREIPN2uJqo997GP7J7j49O///u+7b/3Wbz0ptnOIbfLyt3/7t7sXvehFe9/OKbY/7dM+bff2t799j8XXfM3X7OfTTZQPJq9//ev3P6985Suv/GnFa81TI4qnzDlFbGP3N37jN6o/zMhnuPPGN75x933f930W2xX/63OoTg7l1/Vbvj+5fl2/h2rH999pH5Z9/y2vNYd4NkFPHjfBIQd6bh8D56Uvfenuj//4j3df/dVffZIYJf4eil03+9ZPaGWXGEu55nrtU2lEJx8G/vu//3v30Y9+9OrVhili+5u/+Zt3//Vf/7WrFbBf//Vfv/vP//zP3Z07d678l6AciqkU5zHXNE+tr7VzTBXbP/iDP7h/so94Zo4f+IEf2ONR+l+Pku1afo/VW21ssd+YPddv3Xru+q3DKfJOx67f47EDQ9fvafiBoev3eAxb1+8Yn7VmPL8/3ulk6Eq09H59DBwS8dRTT1179YOnKG94wxv277gyFmF469at3Rd8wRfs/2udVxF0/fbt21fv/2Yx8gu/8At7QUlfXuf48z//893P/dzP7UWpBB6vLCCM9d/zuai+4iu+Yvd3f/d3ex+w85GPfGTvCz6q7x/+4R/u+9D22te+dv9eMv/1/9d//dfX4hLphubOcZfm0tiXvOQlV6+qvP/979+9+93vvia2X/ziF++frOMHPzw95vUWuCJRDaYIdN6j5omeruMn/ZiDNtkAJ65927d92445tUnk4/+v/uqvXuUN/3//939/n58sNLEvPOKT7R/90R+98pE53vrWt+59xAeejP/BH/zB1Tl5+aqv+qp9f3BBzPOknlzjE/Hhk+aR2GYMuaEfdhn3Qz/0Q3s7N27c2D399NNXMce2+GoH9t/xjnfs55HdL/uyL9u97W1vu2b3Z37mZ/Z2iVd80QcOxrFJfNNHuMBHbeImMep4DGvGyVaL/Zg9sHX9Pvfqmuv39TvX73Prmuv3BTvff//+6j7i++8zVw/mTr3/jt2P0v3OYhtAEDd/8zd/sxeJiGeE01/8xV/seFL28z//83vBgtBBiHBdAhDx8iu/8iu7b/mWb9n91V/91e4Tn/jEvj82oxjhXWTeSf7Qhz60e+yxx3Z/9md/tvvFX/zFK+El0XpIbHMD5RUH3ndizn/+53/e2+VppMQTyUdYIuC+7uu+bi9I//Vf/5XLe5HO/J/5mZ95cG7i5oPFm970pr3tt7zlLXsceLVCc+E3r328853v3BcyAhRBy/wSvQhnRDJikvd++Z8D2v7t3/5tL04lqn/4h394Lw7B8Jd/+ZeviW3Z4Ok1QhkRypNwRP13fdd37UUw8ZG3X/qlX9p97dd+7VXeEF+/9Vu/tXvve9+79/HXf/3Xr2Lnia0KQiIYO9qUFwlR2YILbNzEwJPrCOVXv/rVe3uMY3vPe96z+93f/d19PzD53u/93qu5sUk+EcS0/ezP/uz+gwPv1COwyR0LAeMZ91M/9VP7ftj8oi/6oh1xMKd84hUPtmhXHwrwEe79z//8z9UrROKaYsQmPM2/LPpN3/RNe75iG3yJkXwwTmJbNSJfItaME8Yt9iV7rt8X7H+3IH5Qd/3u9hyFc67fP6NsXL++//r++/zvZsX75Cn339L9aOA+Z7ENMNyYEA78hQbEHsIEwcO7qTz5Q3QidiKIPDlENDMmbhJwUYwg0tl4TzbakMCT4JEAkoiJopZxPCHmaamepmNTolZ9EV0ItTgP4loxEh9i/dDcxF3aENOaC7/1Sgbz6v3nP/qjP7ryiw8CfND4h3/4h70wR2Ai2uQ3pNfxt3/7t++xxxbCXNdlI/uD4P7Gb/zGXek1h5y3H/mRH9nbw2fFrlyBla4pFxE/fIxiWjdvPhTQjz2b7GGDmPVKhvrTrnm4JuxyXOSXDxU/+ZM/uf+FVj6oaNMrQUPxRbs5J9iQj1/+5V++t12KN8bOMWPYsK02xomnQ77Qh01jWuxL9sRt1++9/xVz/d67t8Fb16/r1/ffF+0f8Pj++9yT7Rb339L9aOA+d29BGujQ9EbZwxxj4CCEeDqHmJSvWUjougQ0opAnkCzobBIzUYyo71CxQ35EKGIVgSQRE0Ut8+ILYpmnnTyJZA4J0tyX/p/zOZ+z/5HPEoX4KtE3NLfift3rXrfHA/v88IEgziXCZmEnvySUa8Q2furGiKjMNniqy/vZ8uUbvuEb9k/pS2JQ/utDUhTbY6+RgKnw0h6f5It8jLnW/DH3U8Q2T8q/+7u/+youPkA89NBD+1dK4AK+88oMx63EtnIITopzaK/4wEF9Ir/HsAYnjWmxH7Pn+r23dignrt97r6rBDzgIj9lUr+K3zuG26/eZ/f1lrN6Oqecxe65f1+/S7r9jfE71YbEdAeFJNoIOEafr+u96vUbC6ya/93u/t3+lBKD/8i//cv/EGpHOFhdsiWb+vBy//BdfI+H1Af6L/gMf+MBeyPHEmNcweAKjcRJEIiA3UMQ2r2L8zu/8zr6fRGDui/8sXrw68K53vWv/mgzvHfOUlFdBDs3N00L6EhcfEn7t135txzvpYBPnyq+R6JUF+aVXQA69RqIbIfb1msaQDV6lYZ5HH310nyfdLHmthg825DH6n18jQczyVDwKTeZnPvJBjvnhnWw+1BwjtuECr1PgJ/kce41Er3sQF74yrz7EMPY3f/M3r/70nsS2eBlf3WBOfNXrKbKrnMTXSPIHDl5rAneepov72gvfIbE9hjU+yU6L/Zg91++9tSPmxPU7/cMyPHP9/jowuH6ffwDj++9zr4L6/vvA1WucE+rDYvuQAOAdVr2HDLCIJn7xLv5SIP99jRClrSS2ET+MQeyw8VoKv8jIdf1iIMKIL1iJTwyjqMVP3k3VLwOy5zUWnsAgFHPf/9/e2STJbuNA+ExzNIfXjvDOZ5gj2EsfwDsfwzfwEWbCM9+z05UPpqpECfUjKRVRIVIkE0ACINHV1dXM5zPnFGf6GALy0QO5j2RXndGP72bmm1qqLOeCj9/wbj8fhVABzcdfKPjRA5zRH2hoLnr/+OOPX+ap2OaZY8Ch/MAYv1nQH0/CLYVG1Z/5+BF/6gcEfzdexTbYulTYbim2iQl+a4DN2PHTTz990UlyVLjqDxnRm+tebPAZdelU/0CS777mh7kRLpxTSPsfSFKAOb9wwzyKfTj116Ni+x7X2ORYe9uzeMnfP/ec5O/tq9DIES7t1Ypv9dmDk79/7pWz+fYov2fxkr/J308+fyfi+etD9VGinGF8gpzWIuEM3J3Jhvql+p22+Q9MnbhdWPy2gR+c9M0v4PK5fj7GROHcJQec7nzrxuu0NVivO0+Sv8nf5Nvr8q2b6xUr4YsAABTRSURBVLPk78R5dFxnbXX+BDmtRcdWfbPuOTGqj7c849+1f3qxzTv/vNOff9f+nNhKzj6f1+Rv8jd59vw8exbHZ8nfiXryuM7aGgQT5KTYLh8n2Mr51dZ9erH9Sn9051s33iu5iKxjnDfJ35ufuvOtGy85dfNVuPiTi1fm70Q8X89RE+Sk2E6xnRjYGQPd+daNlwPqemdAfL7e59351o0XX673Zbjq52oinvuFf7pDJ8hJobWz0Pr0WIh+z8//7nzrxksMPD8GwvFxOe7Ot268xNZxY+sMvpuI5+s5aoKcFNtPLLb5y399s4a3z5CAseG2r3TnWzdefHXz1adyoX/2pW8L+VQ9H+l1xH2uO9+68R5xnvHPz+8j+2ginq/niAlypoptvp6GzwptDRy+Eq7+Q50lLH11FbboWnsQuRx9hZ8wuKsAXpLd8ZzD87fffvv7qwHBhLu1NrgOIywfX9uGF3QCb7QG/eB9NJZny/sIMdXJTzeedDtK/r4rZ8XTO+7sC3Vvpc/FfsU367wqN33/3MLF1n3u0f60Vpd7OMQWZxBzhNedb9140jP35T043DyPm4l4fp4Sn+rgCXL+3nDW2PLqw9oPHx3Aaw4cPyxGmyu4jr3G9tk5ow1/dKCuwU2x/dk53J1v3XiKsaPk7yhn0V3/CEv2nOleC9S6fzC+Zu/7BE627nPV5q223MMZxVZ3vnXjbeUh6z773DiKfybi+XqET5BzmGKbwGQTXfPOuM8bba5bD4OZ5BgVNujCu1TcweK/daHrI9wU25+dw9351o2n+BrFpMbW3D2vHs0fyVq7fpSzyDtawbm2OB7ZW/eoDtvh3/+j7CMfrhlHz2rn1n0O/e795m2NPsy5hzPiujvfuvHW2p15n31OHNU/E/F8PQesJYdNif+wp4uNk4BgY9fl7ybVA5T5uvSf+pjjmy8yVCB7GzlVvq+rsphP0UmxKj19veQLVzLr5ioMl7Vkrw4NDihd/hEUYY3GRoejF81gw63rge568VwXtiAXe2Wf+80xkCt+mEtbOrOew4yXrrpW/Wqbnku/3G++gstOPtbiefyzRn5fimd8yJh0Zb4u5Q9z3NfIUC55G4wq39dVWcxXTElPXy/5zKs56/oqlnnmdrpdyPZrJI9xnqODF3hVR/WFJxvv7Q1L8p1vyceOyutoPfZJdrXd9+ilsSrbsVjjL9dni51wBqfg3NvnKrfam3iOPqzv3udqbCGLy+3f2+7G26tP1n8d3+Fjjo+JeJ4DPoMj1pBTN50lu9mUtTFz16HmG7Kv9fk893nervK1KetgdFnC1+bMHOZz8HJ/JIfDyC/JYF2VQ18HunTiGXNdPv3RASh+uLscrdchRH/p5TwxBxwVI+hE8cMcxqSjZFW5PJc9rAFHc0drZavjVLuX9L7q8zX5NsPNGrwaB0v4+FM+5a74rDGm9T6fZz7P21V+jSWXJWyPI+Yv5W/F1nqP5aondvGs4mrtEiY23Su2l/IAPP9h2W1DZtXPuWOcPuu5Vx0Yx1b5ir7sE7aPIUs5zri/XI+K6fO87brO2gkOXKzZ59DN7aAtO6q/pIf2LuaqjUzaWov+S/tcxQVnTb45P4/a3XiP5GX865gPH718TMRzr+AjOHJEDpuRLjY535yqTdqANJ8+c3xz9Lav5zkvPfON29sj+b52hO8HmtsjPVWQupy6uaIX9rAxf/vtt1/uYElf5jPGfbRWOo7GkKuDGxmOC/7WQ8jXPeKtyvX5zovslT3ihT621R9Q4Jgxrcv9tq/ATScfIzz8qAs/uF+rbGLAL/rMYd2o7euZ4372mPH2SL6vdVnCX5u/o9wCQzKVt24jbdkm+90OrUUH6cPdc5a+63gvD0Y6Vvtd/ogP9ESvqoNslT30aYPh+vGcF7poz9Jc50Y4yFJba0d39/OsneCh46Nie2SH8zDyl/OLHcyR/j7f9de41ro9tLXPaV7HHe47cIJx22PDxfu4mIjn9yn5rgBZQ45vTq5nPRS8v9Su65mnZ77xeXskn3Va67JGWKP1o3m+udbxH3744WGx7YcY66XjEq6Kbc2TTO5rDiHJ8EPR143sdllbDyHkshaskW1uR9pf7ylr8m2GszV4ozhABv7z2PH+Utt1Yw4vPfOc9fZIvq91WSOs0XrNW4o/xeeoUNNav6MDF7KW5GGTcpa1jr2kB/MYW9obGHcu1He/8Iw+eo2weO7z79nu6yvv3q+Y6DB6uZ8dW3PdNm9r3PcrPat351lj7ouRv1yWuNNan+/6a1xrsUe/GVR7Tb4JZ829G2+NzMwZx3J42c/LRDzvF3Y0h60hRxsNG5Pbp02dZ9oQtemzYak92tBY43PU590D5PmaKp8+89g0tU6y6LOWd67Bp1/n80yve3KYAwYHJfaN9NUYMu4dqM4VuPSlc8VlfIQnnf0OB+KM59hDnzsYOiyE6byNdJI94lAcVw59rdviuqV9izNxsSbfNHfNfQ1ejQPhug+Pmr8j27DLc8JzWLaP7szjNcJkvu8V6vtHEJbyALx7e4PkSqeRnKWcZg05imytd7+C7WP0leM+r/q/Ygq73l3XWTvBGq2pMuij65Id1V/0O/a5iov8Nfk20n/pWTfekpw8/+deHE76OZmI537hn+7QteSw+fpFX5sazzl0fv311783xNEmr/X6CIevZ4w/LtSh5Js4HNJnnS7wxS3teqGfxkfrdeC4nKoPmH5og6MNt46xVrpLLnpJTx1m0lPypZu/Y8Yz9Ncc6SUs4evu9lNcsw67hL3EW+UU/0kPxvCH2+vyea5+tU3+lX653/YV/N/Jx1q8s+avckN5xV154zx7HDOn7l8881wf8QWe4yCHfGEuY0t58Ghv8DwU1pJ86aB59GmjF22NKzfVxz4ut9G5I2d9//YxsJAx4hXd2XOYv9VO4Uqm6y6bKrfwrr2KOc4hdjpGHVu7z6GPv1mBDlzSqePejdehUzBu+3W4mONiIp7ngM/giAlyWjeZM3DXZYMOEj9AOTy93yUrOO/N8e5868ZLfLw3Ptbwv1T4rlm7dQ7FqxewW3HquqPtc9351o1X+U3/8/P5TD6aiOfrOWaCnBTbf71z9Izk8APU28+QFcz35Xl3vnXjJTbeFxtruR/9cL527ZZ5yKMo5p3eLeuX1hxxn+vOt268Ja7z/PPz+gw+mojn6zlkgpzWjfYMgRUbrpcve33enW/deHvty/rkxJljoDvfuvHOzH1s+/y9ZSKeP9+Y7oCbICfF9hPf2e72a/A+M5e7860bL3HzmXETv3yGX7rzrRsvcfIZcXJVP0zE8/UcNUFOiu0U24mBnTHQnW/deFc9JGL39c6+LT7vzrduvC02ZU1ivysGJuL5eqRPkJNCa2eh1RXQwTlunnbnWzdeYuu4sfVs333iZ6z5LPkz/nBzicvufOvGW9I7z5PXr4iBiXi+nkMmyEmxnWI7MbAzBrrzrRtvz4Y8+uq3rXj6I0Ds0+VfW7cVt657ZrE2sgF5VYe1/fpVdFr3rCKYIlb6YgtftcfX6Eku435prsbv3f0rA+/NezQ2E3Pou7cwx95HOs2Md+PNyM7c69V7z/b5RDxfj/wJclo3mWc7PfjXi+Uj+Lw737rx9nA4U/g8kqNClULy0dxPHJf+MwXoGjvAqwXj6NkarEdzkCP9KY79e62fVeA/0mk0jo5r4iTFds6EUfzkWV9cTJxHfUKP4sAJcg556B3FD9HzGrnXnW/deHviMMX2LYYp7PTPWvZwWtfWInfp3e66bkvfi21vg1X7jk9hzj/E8mfPbMOJfijghxza8FJlojOv+nym351v3XgztmTuLV/DRQ8XE/HcI/BIjpsgZ9cmdSROouv18uBVPu/OtzV4KoIpgHTVQpACRZd/XEPvaPKupi4VWt6Hv5EcFUGM0/7555+//BdDydA7wBVLz0fvWM7otDRX/kYnFWCSWXVBB7+ku2zSWH0uXMnyO3ot/WdXdOK/HGrc/yNrLa5r8V11df6qTI0hT5fbID/LTrdHWMKQbVU+a+QDbOLSM/3nSY17jKGTMLEZvXSB48W81uO/Jb3AQi7rhOW8Mq61kuP2emxIr447sjpwgpEz6xNiYCKer+ewCXKyKfx/Q/6EgI4Ox/VDd76twVOxouJBhYMKJZ57cUNfxbgKEM0d9VU0LcmRXGR4MUcc80zYrpfa2Kdri05VX+komch3/fRc8tVXzlWu9Jw7Y7yW1mouOvi/AR/pJFuF6/6pOkt/bJUvWEcfvrlXmdKl3mVDlet+0hrpjX9cPzjzvnwgPVnvumpcXFdd3V5xW/H9Iy7Sr96R7/GHPPWrTNkmnaQDtlbcPf1uvD26ZO1xz5VP8d1EPF+P7AlyWjeZTwmO6HG9mH+nz7vzbYRHgaCLAqMWEtivokrFi4oKxphPscfdi6I6pr4Kx5EccFUYqWBhndZS7NQL3UZ6ad2MTnUuGLKdtnRC9yVdJBdbvAjWetd/yVZhcB/hjHTSGmzwYlLrv/nmm6+KdjAkX2vpM19r4FVjujPHL2E4nnC0xu/yldYhS23mjXzgz7wtXMl7FFPCd36EUe9uD2PozTrkj/iRT1wHeKq4e/rdeHt0ydqchXtjYCKer0f2BDmtm8xep2b99WL1DD7vzrc1eBQLKp7FoQoJFUoUGxrz+RQiXsj4GPO9EPG2sLzwUgGlsdF8jY300tiMTqNCTraDh0707+nCvCUcLyrBUZ92Lcyl/73CTjq5P0b28gMOH6dwGS5fssT5SCZz6hrv1zZ94da76+g+Z56PaZ3zORqX3iO/rMGXHL+7PTxPsZ0zxOMj7f3xsOY8+ovn/cKO5rAJchY32qPZHH2vF+ef4vPufFuDR8GyVGzDSy1C6KuIq4VQxfJiiDbvDqsoU8Gsvgoo9wXPePkz2lrrRafmzOjEXD6bKxzpqD6yXb+RLm6jdODua6Wv1kuO+r6u4mmu66Q266q9kv3777//rbvmzX6M5J4N8CL9ve22qO3j6K510st/YNMz6bpkHzjiVT5iLdiOX+VJp3oHQx8bYYx16q/xCevX5FuVe6/fjXdPVsZy7j07Bibi+XrOmCDnHwfisx0X/OvF49l93p1va/AoJO4V23BO8aJLBQjPayFUsbxIoQ2O/hAOPC+KaFPguI9VTEm2/mitPmdces3opLkUe7pq4aZ+lSldVGRpvZ5jLzpx8Qy73V4f11rZj16s0SUd5AvNG/mAZ4xLD+eT5345zmjMdaw2oJPsEY9whLzKiX44Y8wxmVfXModna4rtiodt6CS9GKct/sSr280cXszRH+iCU/nTWsa4hMlajw3hddyR04ETjJyVnxADE/F8PYdNkJNN4a9N+xOCOjocM1e7860b72xxNSr0zmbjK+xRsTkqYl8h32Wgg4ptCvv6g6TP7W5351s3Xre9wTvmOfMuv03E8/WInSAnxXaK7cTAzhjozrduvHdt0s+Sm2K770yjyPV3sJ/ls3u4Kvr1rrO/q31vXddYd75143XZGZy+vLkSlxPxfD2CJ8hJobWz0LpS0sXW8V7SnW/deGfzW4rtcRweyc8U1n69s+DvzrduvCP5NboePzerDyfi+XzGVzJqf4KcFNspthMDO2OgO9+68er+kP71zoT4fNnn3fnWjRffLfsu3Dyfm4l4fr4yn+bwCXJSaO0stD7N99Hn9fnenW/deImJ18dEOD8O59351o2XWDpOLJ3RVxPxfD1HTZCTYjvFdmJgZwx051s33hkPgNh0vXPtWT7vzrduvGfZHdzk0JoYmIjn6xE6QU4KrZ2F1ppgzZxz52B3vnXjJf7OHX/x7z7/dudbN178u8+/4W8ffxPxvE/QER01QU6K7RTbiYGdMdCdb914R9zDovP1zq13+bw737rx3sVL5CYHiYGJeL4eYRPkpNDaWWhlQ7peflWfd+dbN17VN/3EbGLgFgPd+daNF1/dfBUuXs/FRDy/Xrl3B8QEOSm2U2wnBnbGQHe+deO9ez+K/OudQUfyeXe+deMdicvoer5cn4jn8xn/KKAnyEmhtbPQeuSLjJ8//7rzrRsvMXj+GIyPt/u4O9+68eLb7b4Nd/u5m4jn/cKO5rAJclJsp9hODOyMge5868Y72v4Vfa93Zr3T59351o33Tm4iO7k4Ec/XI2uCnBRaOwutbEbXy6/q8+5868ar+qafmE0M3GKgO9+68eKrm6/Cxeu5mIjn1yv37oCYICfFdortxMDOGOjOt268d+9HkX+9M+hIPu/Ot268I3EZXc+X6xPxfD7jHwX0BDkptHYWWo98kfHz5193vnXjJQbPH4Px8XYfd+dbN158u9234W4/dxPxvF/Y0Rw2QU6K7RTbiYGdMdCdb914R9u/ou/1zqx3+rw737rx3slNZCcXJ+L5emRNkJNCa2ehlc3oevlVfd6db914Vd/0E7OJgVsMdOdbN158dfNVuHg9FxPx/Hrl3h0QE+Sk2E6xnRjYGQPd+daN9+79KPKvdwYdyefd+daNdyQuo+v5cn0ins9n/KOAniAnhdbOQuuRLzJ+/vzrzrduvMTg+WMwPt7u4+5868aLb7f7Ntzt524invcLO5rDJshJsZ1iOzGwMwa6860b72j7V/S93pn1Tp9351s33ju5iezk4kQ8X4+sCXJSaO0stLIZXS+/qs+7860br+qbfmI2MXCLge5868aLr26+Chev52Iinl+v3LsDYoKcFNspthMDO2OgO9+68d69H0X+9c6gI/m8O9+68Y7EZXQ9X65PxPP5jH8U0BPkpNDaWWg98kXGz59/3fnWjZcYPH8Mxsfbfdydb9148e1234a7/dxNxPN+YUdz2B9//Ad+coWBMLCJgf9Or+rcI5K/0/RnQRgwBpK/RkaaYaAw8LT8uGKx/ccf3333r7zCQWJgQwxoZ/r+++/f8psf5Cd/s38lBrbFQPJ3G2+Jt2vw9sT8SLGdJLpGEsXPPX5mM/rll39/2ZPeUXAjOL7s8WV4vB6P5E/y93p+T66v8/kT8yPFdoJwXRCGp/BEDHBxf9eBLfmJx8RjYmA+BpQ/yd957hJv5+fsifmRYjsJdP4Eio/7fKzNCE7fcWC7/Pi1z6/h8hpcev4kf6/h8+T2ej8/Kz/+By0tSvyZtSeDAAAAAElFTkSuQmCC;" vertex="1" parent="1">
          <mxGeometry x="60" y="-3280" width="731" height="473" as="geometry" />
        </mxCell>
      </root>
    </mxGraphModel>
  </diagram>
</mxfile>
